<?xml version="1.0" standalone="no"?>
<!DOCTYPE svg PUBLIC "-//W3C//DTD SVG 20010904//EN"
 "http://www.w3.org/TR/2001/REC-SVG-20010904/DTD/svg10.dtd">
<svg version="1.0" xmlns="http://www.w3.org/2000/svg"
 width="260.000000pt" height="260.000000pt" viewBox="0 0 260.000000 260.000000"
 preserveAspectRatio="xMidYMid meet">
<metadata>
Created by potrace 1.11, written by Peter Selinger 2001-2013
</metadata>
<g transform="translate(0.000000,260.000000) scale(0.100000,-0.100000)"
fill="#000000" stroke="none">
<path d="M666 1880 c-21 -25 -24 -35 -16 -51 21 -39 95 -11 88 34 -2 11 -13
26 -24 34 -20 13 -24 11 -48 -17z"/>
<path d="M1515 1826 c-130 -32 -285 -135 -285 -189 0 -26 28 -57 52 -57 8 0
42 22 76 49 104 84 241 121 363 101 80 -14 174 -56 235 -106 89 -73 164 -224
164 -330 0 -70 54 -109 93 -66 34 37 14 170 -44 290 -56 116 -144 204 -259
261 -47 22 -109 46 -139 51 -71 13 -194 11 -256 -4z"/>
<path d="M802 1748 c-7 -7 -12 -24 -12 -40 0 -23 57 -84 333 -362 385 -387
389 -391 527 -391 66 0 96 5 131 21 67 31 121 84 154 151 38 77 41 192 6 264
-34 71 -85 125 -149 156 -49 24 -69 28 -142 28 -73 0 -92 -4 -136 -27 -46 -24
-104 -78 -104 -97 0 -3 7 -17 16 -29 18 -26 65 -30 85 -6 25 30 87 54 140 54
177 0 270 -193 162 -337 -50 -66 -172 -94 -246 -57 -18 9 -183 166 -367 350
-344 342 -363 357 -398 322z"/>
<path d="M478 1696 c-10 -14 -18 -31 -18 -38 0 -8 188 -203 418 -434 434 -437
460 -460 588 -505 74 -27 226 -36 307 -19 118 24 307 144 307 193 0 21 -35 57
-54 57 -8 0 -37 -18 -66 -41 -114 -90 -242 -128 -368 -110 -154 23 -155 24
-632 493 -236 233 -438 424 -447 425 -10 2 -26 -8 -35 -21z"/>
<path d="M2100 1100 c-11 -11 -20 -27 -20 -35 0 -21 36 -55 58 -55 24 0 52 31
52 58 0 21 -34 52 -57 52 -7 0 -22 -9 -33 -20z"/>
</g>
</svg>
