<?xml version="1.0" encoding="utf-8"?>
<!-- Generator: Adobe Illustrator 23.0.3, SVG Export Plug-In . SVG Version: 6.00 Build 0)  -->
<svg version="1.1" id="Layer_1" xmlns="http://www.w3.org/2000/svg" xmlns:xlink="http://www.w3.org/1999/xlink" x="0px" y="0px"
	 viewBox="0 0 200 200" style="enable-background:new 0 0 200 200;" xml:space="preserve">
<path d="M197,197c3.9-3.9,3.9-10.2,0-14.1L114.1,100L197,17.1c3.9-3.9,3.9-10.2,0-14.1c-3.9-3.9-10.2-3.9-14.1,0L100,85.9L17.1,3
	C13.2-0.9,6.9-0.9,3,3s-3.9,10.2,0,14.1L85.9,100L3,182.9c-3.9,3.9-3.9,10.2,0,14.1c3.9,3.9,10.2,3.9,14.1,0l82.9-82.9l82.9,82.9
	C186.8,200.9,193.1,200.9,197,197z"/>
</svg>
