<?xml version="1.0" encoding="utf-8"?>
<!-- Generator: Adobe Illustrator 23.1.1, SVG Export Plug-In . SVG Version: 6.00 Build 0)  -->
<svg version="1.1" id="Layer_1" xmlns="http://www.w3.org/2000/svg" xmlns:xlink="http://www.w3.org/1999/xlink" x="0px" y="0px"
	 viewBox="0 0 200 200" style="enable-background:new 0 0 200 200;" xml:space="preserve">
<style type="text/css">
	.st0{fill:#FFFFFF;}
</style>
<path class="st0" d="M197,197c3.91-3.91,3.91-10.24,0-14.14L114.14,100L197,17.14c3.91-3.91,3.91-10.24,0-14.14
	c-3.91-3.91-10.24-3.91-14.14,0L100,85.86L17.14,3C13.24-0.91,6.91-0.91,3,3c-3.91,3.91-3.91,10.24,0,14.14L85.86,100L3,182.86
	c-3.91,3.91-3.91,10.24,0,14.14c3.91,3.91,10.24,3.91,14.14,0L100,114.14L182.86,197C186.76,200.91,193.09,200.91,197,197z"/>
</svg>
