<?xml version="1.0" encoding="utf-8"?>
<!-- Generator: Adobe Illustrator 23.1.1, SVG Export Plug-In . SVG Version: 6.00 Build 0)  -->
<svg version="1.1" id="Layer_1" xmlns="http://www.w3.org/2000/svg" xmlns:xlink="http://www.w3.org/1999/xlink" x="0px" y="0px"
	 viewBox="0 0 200 200" style="enable-background:new 0 0 200 200;" xml:space="preserve">
<style type="text/css">
	.st0{fill:#FFFFFF;}
</style>
<g>
	<path class="st0" d="M156.5,113c-24.02,0-43.5,19.48-43.5,43.5s19.48,43.5,43.5,43.5s43.5-19.48,43.5-43.5S180.52,113,156.5,113z
		 M156.5,180c-12.96,0-23.5-10.54-23.5-23.5s10.54-23.5,23.5-23.5s23.5,10.54,23.5,23.5S169.46,180,156.5,180z"/>
	<path class="st0" d="M43.5,113C19.48,113,0,132.48,0,156.5S19.48,200,43.5,200S87,180.52,87,156.5S67.52,113,43.5,113z M43.5,180
		C30.54,180,20,169.46,20,156.5S30.54,133,43.5,133S67,143.54,67,156.5S56.46,180,43.5,180z"/>
	<path class="st0" d="M43.5,0C19.48,0,0,19.48,0,43.5S19.48,87,43.5,87S87,67.52,87,43.5S67.52,0,43.5,0z M43.5,67
		C30.54,67,20,56.46,20,43.5S30.54,20,43.5,20S67,30.54,67,43.5S56.46,67,43.5,67z"/>
	<path class="st0" d="M156.5,87c24.02,0,43.5-19.48,43.5-43.5S180.52,0,156.5,0S113,19.48,113,43.5S132.48,87,156.5,87z M156.5,20
		c12.96,0,23.5,10.54,23.5,23.5S169.46,67,156.5,67S133,56.46,133,43.5S143.54,20,156.5,20z"/>
</g>
</svg>
