<?xml version="1.0" encoding="utf-8"?>
<!-- Generator: Adobe Illustrator 23.1.1, SVG Export Plug-In . SVG Version: 6.00 Build 0)  -->
<svg version="1.1" id="Layer_1" xmlns="http://www.w3.org/2000/svg" xmlns:xlink="http://www.w3.org/1999/xlink" x="0px" y="0px"
	 viewBox="0 0 200 200" style="enable-background:new 0 0 200 200;" xml:space="preserve">
<style type="text/css">
	.st0{fill:#FFFFFF;}
</style>
<g>
	<path class="st0" d="M0,11L0,11c0,5.52,4.48,10,10,10h180c5.52,0,10-4.48,10-10v0c0-5.52-4.48-10-10-10H10C4.48,1,0,5.48,0,11z"/>
	<path class="st0" d="M10,110h180c5.52,0,10-4.48,10-10v0c0-5.52-4.48-10-10-10H10c-5.52,0-10,4.48-10,10v0
		C0,105.52,4.48,110,10,110z"/>
	<path class="st0" d="M10,199h180c5.52,0,10-4.48,10-10v0c0-5.52-4.48-10-10-10H10c-5.52,0-10,4.48-10,10v0
		C0,194.52,4.48,199,10,199z"/>
</g>
</svg>
