<?xml version="1.0" encoding="utf-8"?>
<!-- Generator: Adobe Illustrator 23.1.1, SVG Export Plug-In . SVG Version: 6.00 Build 0)  -->
<svg version="1.1" id="Layer_1" xmlns="http://www.w3.org/2000/svg" xmlns:xlink="http://www.w3.org/1999/xlink" x="0px" y="0px"
	 viewBox="0 0 200 200" style="enable-background:new 0 0 200 200;" xml:space="preserve">
<style type="text/css">
	.st0{fill:#FFFFFF;}
</style>
<path class="st0" d="M197.04,182.89l-55.1-55.1c10.92-14.08,17.21-31.92,16.55-51.27c-1.43-41.89-35.83-75.72-77.74-76.48
	C35.82-0.76-0.76,35.82,0.05,80.75c0.76,41.91,34.59,76.31,76.48,77.74c19.34,0.66,37.19-5.64,51.27-16.55l55.1,55.1
	c3.91,3.91,10.24,3.91,14.14,0l0,0C200.94,193.13,200.94,186.8,197.04,182.89z M20.16,83.16c-2.28-35.72,27.28-65.28,63-63
	c29.52,1.89,53.37,25.73,55.25,55.25c2.28,35.72-27.28,65.28-63,63C45.89,136.52,22.05,112.68,20.16,83.16z"/>
</svg>
