<?xml version="1.0" encoding="utf-8"?>
<!-- Generator: Adobe Illustrator 23.0.6, SVG Export Plug-In . SVG Version: 6.00 Build 0)  -->
<svg version="1.1" id="Layer_1" xmlns="http://www.w3.org/2000/svg" xmlns:xlink="http://www.w3.org/1999/xlink" x="0px" y="0px"
	 viewBox="0 0 1021.79 175.18" style="enable-background:new 0 0 1021.79 175.18;" xml:space="preserve">
<style type="text/css">
	.st0{fill:#FFFFFF;}
</style>
<g>
	<path class="st0" d="M26.58,85.38c0.03-7.25-5.82-13.15-13.06-13.18C6.27,72.16,0.36,78.01,0.33,85.26s5.82,13.15,13.06,13.18
		C20.64,98.48,26.54,92.63,26.58,85.38z"/>
	<path class="st0" d="M325.48,99.87c7.25,0.03,13.15-5.82,13.18-13.06s-5.82-13.15-13.06-13.18c-7.25-0.03-13.15,5.82-13.18,13.06
		C312.38,93.94,318.23,99.84,325.48,99.87z"/>
	<path class="st0" d="M701.54,3.16l-45.93-0.21l0,0c-5.44-0.02-10.11,3.26-12.13,7.96c-0.67,1.57-1.05,3.29-1.05,5.1v0l-0.66,144.36
		c-0.03,7.25,5.82,13.15,13.06,13.18h0c7.25,0.03,13.15-5.82,13.18-13.06l0.6-131.23l32.81,0.15c7.25,0.03,13.15-5.82,13.18-13.06
		C714.64,9.1,708.79,3.2,701.54,3.16z"/>
	<circle class="st0" cx="609.62" cy="15.87" r="13.12"/>
	<path class="st0" d="M800.89,75.97l-32.81-0.15l0.27-59.23c0.03-7.25-5.82-13.15-13.06-13.18c-7.25-0.03-13.15,5.82-13.18,13.06
		l-0.66,144.36c-0.03,7.25,5.82,13.15,13.06,13.18c7.25,0.03,13.15-5.82,13.18-13.06l0.27-58.88l32.81,0.15
		c7.25,0.03,13.15-5.82,13.18-13.06C813.98,81.91,808.13,76.01,800.89,75.97z"/>
	<path class="st0" d="M847.15,3.83C839.9,3.8,834,9.65,833.97,16.9l-0.66,144.36c-0.03,7.25,5.82,13.15,13.06,13.18
		c7.25,0.03,13.15-5.82,13.18-13.06l0.66-144.36C860.25,9.77,854.4,3.86,847.15,3.83z"/>
	<path class="st0" d="M417.8,1.44l-91.86-0.42c-7.25-0.03-13.15,5.82-13.18,13.06s5.82,13.15,13.06,13.18l91.86,0.42
		c7.25,0.03,13.15-5.82,13.18-13.06S425.04,1.47,417.8,1.44z"/>
	<path class="st0" d="M417.46,74.05l-45.93-0.21c-7.25-0.03-13.15,5.82-13.18,13.06c-0.03,7.25,5.82,13.15,13.06,13.18l45.93,0.21
		c7.25,0.03,13.15-5.82,13.18-13.06C430.56,79.98,424.71,74.08,417.46,74.05z"/>
	<path class="st0" d="M417.13,146.23l-91.86-0.42c-7.25-0.03-13.15,5.82-13.18,13.06c-0.03,7.25,5.82,13.15,13.06,13.18l91.86,0.42
		c7.25,0.03,13.15-5.82,13.18-13.06C430.23,152.16,424.38,146.26,417.13,146.23z"/>
	<path class="st0" d="M916.41,102.58c7.25,0.03,13.15-5.82,13.18-13.06c0.03-7.25-5.82-13.15-13.06-13.18
		c-7.25-0.03-13.15,5.82-13.18,13.06C903.31,96.64,909.16,102.54,916.41,102.58z"/>
	<path class="st0" d="M916.74,29.97l91.86,0.42c7.25,0.03,13.15-5.82,13.18-13.06c0.03-7.25-5.82-13.15-13.06-13.18l-91.86-0.42
		c-7.25-0.03-13.15,5.82-13.18,13.06S909.49,29.93,916.74,29.97z"/>
	<path class="st0" d="M1008.39,76.75l-45.93-0.21c-7.25-0.03-13.15,5.82-13.18,13.06c-0.03,7.25,5.82,13.15,13.06,13.18l45.93,0.21
		c7.25,0.03,13.15-5.82,13.18-13.06C1021.49,82.69,1015.64,76.78,1008.39,76.75z"/>
	<path class="st0" d="M1008.06,148.93l-91.86-0.42c-7.25-0.03-13.15,5.82-13.18,13.06c-0.03,7.25,5.82,13.15,13.06,13.18l91.86,0.42
		c7.25,0.03,13.15-5.82,13.18-13.06C1021.16,154.86,1015.31,148.96,1008.06,148.93z"/>
	<path class="st0" d="M267.69,50.38c0.12-27.18-21.81-49.31-48.99-49.44l-37.03-0.15L162.93,0.7c-7.25-0.03-13.15,5.82-13.18,13.06
		c-0.03,7.25,5.82,13.15,13.06,13.18l18.74,0.09l37.03,0.15c12.68,0.06,22.92,10.39,22.86,23.07
		c-0.06,12.68-10.39,22.92-23.07,22.86l-13.77-0.06c-3.63-0.02-6.92,1.44-9.3,3.81c-2.39,2.36-3.88,5.64-3.9,9.27
		c-0.01,2.77,0.85,5.34,2.3,7.46l-0.01,0l49.22,71.86c0.19,0.31,0.4,0.61,0.62,0.91l0.39,0.57l0.05-0.04
		c2.39,2.91,5.97,4.81,10.03,4.83c7.25,0.03,13.15-5.82,13.18-13.06c0.01-3.13-1.12-5.97-2.94-8.24l0.04-0.04l-36.48-51.93
		C250.44,94.11,267.58,74.28,267.69,50.38z"/>
	<path class="st0" d="M69.62,0.27l0-0.02L13.85,0C6.6-0.03,0.69,5.82,0.66,13.07c-0.03,7.25,5.82,13.16,13.07,13.19l55.77,0.26l0,0
		c12.68,0.06,22.92,10.39,22.86,23.07C92.3,62.28,81.97,72.51,69.29,72.45l0-0.01l-9.83-0.04c-7.25-0.03-13.16,5.82-13.19,13.07v0
		c-0.03,7.25,5.82,13.16,13.07,13.19l9.83,0.04l0-0.01c12.68,0.06,22.92,10.39,22.86,23.07s-10.39,22.92-23.07,22.86l0-0.02
		l-55.77-0.26C5.94,144.32,0.03,150.17,0,157.43s5.82,13.16,13.07,13.19l55.77,0.26l0,0.01c27.18,0.12,49.31-21.81,49.44-48.99
		c0.07-14.28-6-27.13-15.67-36.16c9.76-8.95,15.93-21.74,16-36.02C118.73,22.53,96.8,0.4,69.62,0.27z"/>
	<path class="st0" d="M540.65,11.08c-0.04-0.1-0.1-0.19-0.14-0.29c-0.08-0.21-0.17-0.42-0.26-0.63c-0.12-0.28-0.28-0.54-0.43-0.81
		c-0.16-0.3-0.31-0.61-0.49-0.89c-0.1-0.16-0.21-0.32-0.32-0.48c-0.18-0.25-0.38-0.48-0.58-0.72c-0.22-0.27-0.43-0.55-0.67-0.81
		c-0.12-0.13-0.25-0.25-0.38-0.38c-0.23-0.22-0.48-0.41-0.73-0.62c-0.26-0.21-0.5-0.44-0.78-0.64c-0.16-0.12-0.33-0.22-0.5-0.33
		c-0.26-0.17-0.54-0.3-0.81-0.45c-0.29-0.16-0.56-0.33-0.85-0.46c-0.22-0.1-0.45-0.18-0.68-0.27c-0.1-0.04-0.18-0.1-0.27-0.13
		c-0.19-0.07-0.38-0.08-0.57-0.14c-0.3-0.09-0.59-0.2-0.89-0.27c-0.25-0.06-0.5-0.1-0.75-0.14c-0.31-0.05-0.62-0.09-0.93-0.12
		c-0.31-0.03-0.61-0.07-0.92-0.08c-0.12,0-0.23-0.04-0.35-0.04c-0.13,0-0.25,0.03-0.38,0.04c-0.32,0.01-0.64,0.04-0.96,0.07
		c-0.3,0.03-0.6,0.06-0.89,0.11c-0.25,0.04-0.5,0.09-0.75,0.14c-0.32,0.07-0.62,0.18-0.93,0.28c-0.19,0.06-0.38,0.07-0.57,0.14
		c-0.09,0.03-0.16,0.08-0.24,0.12c-0.23,0.09-0.45,0.17-0.68,0.27c-0.31,0.14-0.59,0.31-0.88,0.47c-0.26,0.14-0.54,0.27-0.79,0.43
		c-0.17,0.11-0.34,0.22-0.5,0.33c-0.28,0.2-0.54,0.43-0.81,0.65c-0.24,0.2-0.49,0.38-0.71,0.59c-0.13,0.12-0.25,0.25-0.38,0.38
		c-0.25,0.26-0.47,0.55-0.7,0.83c-0.19,0.23-0.39,0.45-0.57,0.69c-0.11,0.16-0.22,0.32-0.32,0.48c-0.19,0.29-0.34,0.61-0.51,0.92
		c-0.14,0.26-0.3,0.51-0.42,0.78c-0.1,0.21-0.18,0.42-0.26,0.64c-0.04,0.11-0.11,0.2-0.15,0.32l-37.23,102.78
		c-2.47,6.81,1.06,14.34,7.87,16.81c6.81,2.47,14.34-1.05,16.81-7.87l24.82-68.52l39.45,110.19c2.44,6.82,9.96,10.38,16.78,7.93
		c6.82-2.44,10.38-9.96,7.93-16.78L540.65,11.08z"/>
	<path class="st0" d="M475.19,146.49c-7.25-0.03-13.15,5.82-13.18,13.06c-0.03,7.25,5.82,13.15,13.06,13.18
		c7.25,0.03,13.15-5.82,13.18-13.06C488.29,152.43,482.44,146.52,475.19,146.49z"/>
</g>
</svg>
