<?xml version="1.0" encoding="utf-8"?>
<!-- Generator: Adobe Illustrator 23.0.6, SVG Export Plug-In . SVG Version: 6.00 Build 0)  -->
<svg version="1.1" id="Layer_1" xmlns="http://www.w3.org/2000/svg" xmlns:xlink="http://www.w3.org/1999/xlink" x="0px" y="0px"
	 viewBox="0 0 1021.12 88.94" style="enable-background:new 0 0 1021.12 88.94;" xml:space="preserve">
<style type="text/css">
	.st0{fill:#FFFFFF;}
</style>
<g>
	<g>
		<path class="st0" d="M477.23,77.58L451.55,5.84c-0.02-0.05-0.05-0.09-0.07-0.14c-0.04-0.11-0.08-0.21-0.13-0.32
			c-0.06-0.14-0.14-0.27-0.21-0.4c-0.08-0.15-0.15-0.3-0.24-0.44c-0.05-0.08-0.11-0.16-0.16-0.24c-0.09-0.13-0.19-0.24-0.29-0.36
			c-0.11-0.14-0.21-0.28-0.33-0.4c-0.06-0.06-0.13-0.13-0.19-0.19c-0.11-0.11-0.24-0.21-0.36-0.31c-0.13-0.11-0.25-0.22-0.38-0.32
			c-0.08-0.06-0.17-0.11-0.25-0.17c-0.13-0.08-0.27-0.15-0.4-0.22c-0.14-0.08-0.28-0.16-0.42-0.23c-0.11-0.05-0.22-0.09-0.34-0.14
			c-0.05-0.02-0.09-0.05-0.14-0.07l0,0c-0.09-0.03-0.19-0.04-0.28-0.07c-0.15-0.05-0.29-0.1-0.44-0.14
			c-0.12-0.03-0.25-0.05-0.37-0.07c-0.15-0.03-0.31-0.04-0.46-0.06c-0.15-0.02-0.3-0.03-0.46-0.04c-0.06,0-0.11-0.02-0.17-0.02
			c-0.06,0-0.12,0.02-0.19,0.02c-0.16,0-0.32,0.02-0.47,0.04c-0.15,0.01-0.3,0.03-0.44,0.05c-0.13,0.02-0.25,0.04-0.37,0.07
			c-0.16,0.04-0.31,0.09-0.46,0.14c-0.09,0.03-0.19,0.04-0.28,0.07c-0.04,0.02-0.08,0.04-0.12,0.06c-0.11,0.04-0.22,0.09-0.33,0.14
			c-0.15,0.07-0.29,0.15-0.44,0.23c-0.13,0.07-0.27,0.13-0.39,0.21c-0.08,0.05-0.17,0.11-0.25,0.17c-0.14,0.1-0.27,0.21-0.4,0.32
			c-0.12,0.1-0.24,0.19-0.35,0.29c-0.06,0.06-0.13,0.12-0.19,0.19c-0.12,0.13-0.23,0.27-0.35,0.41c-0.09,0.11-0.2,0.22-0.28,0.34
			c-0.06,0.08-0.11,0.16-0.16,0.24c-0.09,0.15-0.17,0.3-0.25,0.46c-0.07,0.13-0.15,0.25-0.21,0.38c-0.05,0.1-0.09,0.21-0.13,0.32
			c-0.02,0.06-0.06,0.1-0.08,0.16L420.8,56.85c-1.23,3.38,0.52,7.12,3.91,8.35h0c3.38,1.23,7.12-0.52,8.35-3.91l12.32-34.02
			l19.59,54.71c1.21,3.39,4.94,5.15,8.33,3.94l0,0C476.68,84.7,478.45,80.97,477.23,77.58z"/>
		<path class="st0" d="M419.05,73.08c-3.6-0.02-6.53,2.89-6.55,6.49c-0.02,3.6,2.89,6.53,6.49,6.55c3.6,0.02,6.53-2.89,6.55-6.49
			C425.55,76.02,422.65,73.09,419.05,73.08z"/>
	</g>
	<g>
		<path class="st0" d="M64.73,77.58L39.04,5.84C39.03,5.79,39,5.75,38.98,5.7c-0.04-0.11-0.08-0.21-0.13-0.32
			c-0.06-0.14-0.14-0.27-0.21-0.4c-0.08-0.15-0.15-0.3-0.24-0.44c-0.05-0.08-0.11-0.16-0.16-0.24c-0.09-0.13-0.19-0.24-0.29-0.36
			c-0.11-0.14-0.21-0.28-0.33-0.4c-0.06-0.06-0.13-0.13-0.19-0.19c-0.11-0.11-0.24-0.21-0.36-0.31c-0.13-0.11-0.25-0.22-0.38-0.32
			c-0.08-0.06-0.17-0.11-0.25-0.17c-0.13-0.08-0.27-0.15-0.4-0.22c-0.14-0.08-0.28-0.16-0.42-0.23c-0.11-0.05-0.22-0.09-0.34-0.14
			c-0.05-0.02-0.09-0.05-0.14-0.07l0,0c-0.09-0.03-0.19-0.04-0.28-0.07c-0.15-0.05-0.29-0.1-0.44-0.14
			c-0.12-0.03-0.25-0.05-0.37-0.07c-0.15-0.03-0.31-0.04-0.46-0.06c-0.15-0.02-0.3-0.03-0.46-0.04c-0.06,0-0.11-0.02-0.17-0.02
			c-0.06,0-0.12,0.02-0.19,0.02c-0.16,0-0.32,0.02-0.47,0.04c-0.15,0.01-0.3,0.03-0.44,0.05c-0.13,0.02-0.25,0.04-0.37,0.07
			C31.3,1.73,31.15,1.78,31,1.83c-0.09,0.03-0.19,0.04-0.28,0.07c-0.04,0.02-0.08,0.04-0.12,0.06C30.48,2,30.37,2.05,30.26,2.09
			c-0.15,0.07-0.29,0.15-0.44,0.23c-0.13,0.07-0.27,0.13-0.39,0.21c-0.08,0.05-0.17,0.11-0.25,0.17c-0.14,0.1-0.27,0.21-0.4,0.32
			c-0.12,0.1-0.24,0.19-0.35,0.29c-0.06,0.06-0.13,0.12-0.19,0.19C28.11,3.64,28,3.78,27.89,3.92c-0.09,0.11-0.2,0.22-0.28,0.34
			c-0.06,0.08-0.11,0.16-0.16,0.24c-0.09,0.15-0.17,0.3-0.25,0.46c-0.07,0.13-0.15,0.25-0.21,0.38c-0.05,0.1-0.09,0.21-0.13,0.32
			c-0.02,0.06-0.06,0.1-0.08,0.16L8.3,56.85c-1.23,3.38,0.52,7.12,3.91,8.35h0c3.38,1.23,7.12-0.52,8.35-3.91l12.32-34.02
			l19.59,54.71c1.21,3.39,4.94,5.15,8.33,3.94l0,0C64.18,84.7,65.95,80.97,64.73,77.58z"/>
		<path class="st0" d="M6.55,73.08c-3.6-0.02-6.53,2.89-6.55,6.49c-0.02,3.6,2.89,6.53,6.49,6.55c3.6,0.02,6.53-2.89,6.55-6.49
			S10.14,73.09,6.55,73.08z"/>
	</g>
	<path class="st0" d="M113.55,0l6.52,0.03l9.77,0.04l0,0C152.96,0.18,171.66,18.79,172,41.8c0.34,23.74-19.75,43.08-43.5,42.98
		l-15.34-0.07c-3.6-0.02-6.5-2.95-6.49-6.55v0c0.02-3.6,2.95-6.5,6.55-6.49l15.52,0.07c16.44,0.08,30.45-13.31,30.22-29.74
		c-0.23-15.94-13.18-28.82-29.19-28.9l-9.77-0.04l-0.07,16.29c-0.02,3.6-2.95,6.5-6.55,6.49h0c-3.6-0.02-6.5-2.95-6.49-6.55
		L106.97,13L107,6.49C107.02,2.89,109.95-0.02,113.55,0L113.55,0z"/>
	<path class="st0" d="M199.39,85.1L199.39,85.1c-3.6-0.02-6.5-2.95-6.49-6.55l0.33-71.68c0.02-3.6,2.95-6.5,6.55-6.49l0,0
		c3.6,0.02,6.5,2.95,6.49,6.55l-0.33,71.68C205.92,82.22,202.99,85.12,199.39,85.1z"/>
	<path class="st0" d="M319.84,85.66L319.84,85.66c-3.6-0.02-6.5-2.95-6.49-6.55l0.33-71.68c0.02-3.6,2.95-6.5,6.55-6.49l0,0
		c3.6,0.02,6.5,2.95,6.49,6.55l-0.33,71.68C326.37,82.77,323.44,85.67,319.84,85.66z"/>
	<g>
		<path class="st0" d="M400.07,1.31l-22.81-0.1c-1.8-0.01-3.43,0.71-4.62,1.89c-0.59,0.59-1.07,1.29-1.41,2.06
			c-0.33,0.78-0.52,1.63-0.52,2.53l0,0v0l-0.33,71.68c-0.02,3.6,2.89,6.53,6.49,6.55c3.6,0.02,6.53-2.89,6.55-6.49l0.3-65.16
			l16.29,0.07c3.6,0.02,6.53-2.89,6.55-6.49C406.57,4.26,403.67,1.33,400.07,1.31z"/>
		<path class="st0" d="M354.46,1.1c-3.6-0.02-6.53,2.89-6.55,6.49c-0.02,3.6,2.89,6.53,6.49,6.55c3.6,0.02,6.53-2.89,6.55-6.49
			C360.96,4.05,358.06,1.12,354.46,1.1z"/>
	</g>
	<g>
		<path class="st0" d="M285.74,85.5l-6.52-0.03l-9.77-0.04l0,0c-23.12-0.11-41.83-18.71-42.16-41.73
			c-0.34-23.74,19.75-43.08,43.5-42.98l15.34,0.07c3.6,0.02,6.5,2.95,6.49,6.55v0c-0.02,3.6-2.95,6.5-6.55,6.49l-15.52-0.07
			c-16.44-0.08-30.45,13.31-30.22,29.74c0.23,15.94,13.18,28.82,29.19,28.9l9.77,0.04l0.07-16.29c0.02-3.6,2.95-6.5,6.55-6.49l0,0
			c3.6,0.02,6.5,2.95,6.49,6.55l-0.07,16.29l-0.03,6.52C292.27,82.61,289.34,85.52,285.74,85.5L285.74,85.5z"/>
		
			<ellipse transform="matrix(4.576131e-03 -1 1 4.576131e-03 220.81 307.9207)" class="st0" cx="265.07" cy="43.05" rx="6.52" ry="6.52"/>
	</g>
	<g>
		<path class="st0" d="M500.68,1.77c-3.6-0.02-6.53,2.89-6.55,6.49l-0.33,71.68c-0.02,3.6,2.89,6.53,6.49,6.55
			c3.6,0.02,6.53-2.89,6.55-6.49l0.33-71.68C507.18,4.72,504.28,1.79,500.68,1.77z"/>
		<path class="st0" d="M545.96,73.66l-22.67-0.1c-3.6-0.02-6.53,2.89-6.55,6.49c-0.02,3.6,2.89,6.53,6.49,6.55l22.67,0.1
			c3.6,0.02,6.53-2.89,6.55-6.49S549.56,73.67,545.96,73.66z"/>
	</g>
	
		<ellipse transform="matrix(4.575839e-03 -1 1 4.575839e-03 706.7887 800.8311)" class="st0" cx="755.65" cy="45.4" rx="6.52" ry="6.52"/>
	<g>
		<path class="st0" d="M942.34,3.9l-22.81-0.1c-3.6-0.02-6.53,2.89-6.55,6.49l0,0v0l-0.33,71.68c-0.02,3.6,2.89,6.53,6.49,6.55
			c3.6,0.02,6.53-2.89,6.55-6.49l0.3-65.16l16.29,0.07c3.6,0.02,6.53-2.89,6.55-6.49S945.94,3.92,942.34,3.9z"/>
		<path class="st0" d="M896.73,3.69c-3.6-0.02-6.53,2.89-6.55,6.49s2.89,6.53,6.49,6.55c3.6,0.02,6.53-2.89,6.55-6.49
			S900.32,3.71,896.73,3.69z"/>
	</g>
	<g>
		<path class="st0" d="M991.67,40.05l-16.29-0.07l0.13-29.41c0.02-3.6-2.89-6.53-6.49-6.55c-3.6-0.02-6.53,2.89-6.55,6.49
			l-0.33,71.68c-0.02,3.6,2.89,6.53,6.49,6.55c3.6,0.02,6.53-2.89,6.55-6.49l0.13-29.24l16.29,0.07c3.6,0.02,6.53-2.89,6.55-6.49
			C998.17,43,995.26,40.07,991.67,40.05z"/>
		<path class="st0" d="M1014.64,4.23L1014.64,4.23c-3.6-0.02-6.53,2.89-6.55,6.49l-0.33,71.68c-0.02,3.6,2.89,6.53,6.49,6.55h0
			c3.6,0.02,6.53-2.89,6.55-6.49l0.33-71.68C1021.14,7.18,1018.24,4.25,1014.64,4.23z"/>
	</g>
	<path class="st0" d="M755.78,15.86l45.61,0.21c3.6,0.02,6.53-2.89,6.55-6.49v0c0.02-3.6-2.89-6.53-6.49-6.55l-45.61-0.21
		c-3.6-0.02-6.53,2.89-6.55,6.49v0C749.28,12.92,752.18,15.85,755.78,15.86z"/>
	<path class="st0" d="M778.42,52.02l22.8,0.1c3.6,0.02,6.53-2.89,6.55-6.49v0c0.02-3.6-2.89-6.53-6.49-6.55l-22.8-0.1
		c-3.6-0.02-6.53,2.89-6.55,6.49v0C771.92,49.07,774.83,52,778.42,52.02z"/>
	<path class="st0" d="M755.45,87.76l45.61,0.21c3.6,0.02,6.53-2.89,6.55-6.49v0c0.02-3.6-2.89-6.53-6.49-6.55l-45.61-0.21
		c-3.6-0.02-6.53,2.89-6.55,6.49v0C748.95,84.81,751.85,87.74,755.45,87.76z"/>
	<path class="st0" d="M725.24,77l-18.12-25.78c11.23-2.16,19.74-12.01,19.8-23.88c0.06-13.5-10.83-24.49-24.32-24.55l-18.39-0.08
		l-9.31-0.04c-3.6-0.02-6.53,2.89-6.55,6.49s2.89,6.53,6.49,6.55l9.31,0.04l18.39,0.08c6.3,0.03,11.38,5.16,11.35,11.46
		s-5.16,11.38-11.46,11.35l-6.84-0.03c-1.8-0.01-3.43,0.71-4.62,1.89c-1.19,1.17-1.93,2.8-1.93,4.6c-0.01,1.38,0.42,2.65,1.14,3.71
		l0,0l24.44,35.68c0.1,0.16,0.2,0.3,0.31,0.45l0.19,0.28l0.02-0.02c1.19,1.44,2.96,2.39,4.98,2.4c3.6,0.02,6.53-2.89,6.55-6.49
		c0.01-1.56-0.55-2.97-1.46-4.09L725.24,77z"/>
	<g>
		<path class="st0" d="M607.21,44.72c0.02-3.6-2.89-6.53-6.49-6.55c-3.6-0.02-6.53,2.89-6.55,6.49c-0.02,3.6,2.89,6.53,6.49,6.55
			C604.26,51.22,607.19,48.32,607.21,44.72z"/>
		<path class="st0" d="M652.9,27.01c0.06-13.5-10.83-24.49-24.32-24.55l0-0.01l-27.69-0.13c-3.6-0.02-6.53,2.89-6.55,6.49
			c-0.02,3.6,2.89,6.53,6.49,6.55l27.69,0.13v0c6.3,0.03,11.38,5.16,11.35,11.46c-0.03,6.3-5.16,11.38-11.46,11.35v0l-4.88-0.02
			c-3.6-0.02-6.53,2.89-6.55,6.49v0c-0.02,3.6,2.89,6.53,6.49,6.55l4.88,0.02v0c6.3,0.03,11.38,5.16,11.35,11.46
			c-0.03,6.3-5.16,11.38-11.46,11.35l0-0.01L600.56,74c-3.6-0.02-6.53,2.89-6.55,6.49c-0.02,3.6,2.89,6.53,6.49,6.55l27.69,0.13v0
			c13.5,0.06,24.49-10.83,24.55-24.32c0.03-7.09-2.98-13.47-7.78-17.96C649.8,40.45,652.87,34.1,652.9,27.01z"/>
	</g>
	<g>
		<path class="st0" d="M888.14,79.57L862.45,7.83c-0.02-0.05-0.05-0.09-0.07-0.14c-0.04-0.11-0.08-0.21-0.13-0.32
			c-0.06-0.14-0.14-0.27-0.21-0.4c-0.08-0.15-0.15-0.3-0.24-0.44c-0.05-0.08-0.11-0.16-0.16-0.24c-0.09-0.13-0.19-0.24-0.29-0.36
			c-0.11-0.14-0.21-0.28-0.33-0.4c-0.06-0.06-0.13-0.13-0.19-0.19c-0.11-0.11-0.24-0.21-0.36-0.31c-0.13-0.11-0.25-0.22-0.38-0.32
			c-0.08-0.06-0.17-0.11-0.25-0.17c-0.13-0.08-0.27-0.15-0.4-0.22c-0.14-0.08-0.28-0.16-0.42-0.23c-0.11-0.05-0.22-0.09-0.34-0.14
			c-0.05-0.02-0.09-0.05-0.14-0.07l0,0c-0.09-0.03-0.19-0.04-0.28-0.07c-0.15-0.05-0.29-0.1-0.44-0.14
			c-0.12-0.03-0.25-0.05-0.37-0.07c-0.15-0.03-0.31-0.04-0.46-0.06c-0.15-0.02-0.3-0.03-0.46-0.04c-0.06,0-0.11-0.02-0.17-0.02
			c-0.06,0-0.12,0.02-0.19,0.02c-0.16,0-0.32,0.02-0.47,0.04c-0.15,0.01-0.3,0.03-0.44,0.05c-0.13,0.02-0.25,0.04-0.37,0.07
			c-0.16,0.04-0.31,0.09-0.46,0.14c-0.09,0.03-0.19,0.04-0.28,0.07c-0.04,0.02-0.08,0.04-0.12,0.06c-0.11,0.04-0.23,0.09-0.34,0.14
			c-0.15,0.07-0.29,0.15-0.44,0.23c-0.13,0.07-0.27,0.13-0.39,0.21c-0.08,0.05-0.17,0.11-0.25,0.17c-0.14,0.1-0.27,0.21-0.4,0.32
			c-0.12,0.1-0.24,0.19-0.35,0.29c-0.06,0.06-0.13,0.12-0.19,0.19c-0.12,0.13-0.23,0.27-0.35,0.41c-0.09,0.11-0.2,0.22-0.28,0.34
			c-0.06,0.08-0.11,0.16-0.16,0.24c-0.09,0.15-0.17,0.3-0.25,0.46c-0.07,0.13-0.15,0.25-0.21,0.38c-0.05,0.1-0.09,0.21-0.13,0.32
			c-0.02,0.06-0.06,0.1-0.08,0.16L831.7,58.84c-1.23,3.38,0.52,7.12,3.91,8.35h0c3.38,1.23,7.12-0.52,8.35-3.91l12.32-34.02
			l19.59,54.71c1.21,3.39,4.94,5.15,8.33,3.94l0,0C887.59,86.69,889.35,82.96,888.14,79.57z"/>
		<path class="st0" d="M829.95,75.06c-3.6-0.02-6.53,2.89-6.55,6.49c-0.02,3.6,2.89,6.53,6.49,6.55c3.6,0.02,6.53-2.89,6.55-6.49
			C836.46,78.01,833.55,75.08,829.95,75.06z"/>
	</g>
</g>
</svg>
