<?xml version="1.0" encoding="utf-8"?>
<!-- Generator: Adobe Illustrator 23.0.6, SVG Export Plug-In . SVG Version: 6.00 Build 0)  -->
<svg version="1.1" id="Layer_1" xmlns="http://www.w3.org/2000/svg" xmlns:xlink="http://www.w3.org/1999/xlink" x="0px" y="0px"
	 viewBox="0 0 1929.28 400" style="enable-background:new 0 0 1929.28 400;" xml:space="preserve">
<style type="text/css">
	.st0{fill:#FFFFFF;}
</style>
<g>
	<g>
		
			<ellipse transform="matrix(0.7722 -0.6353 0.6353 0.7722 -7.1757 15.1959)" class="st0" cx="17.61" cy="17.61" rx="17.61" ry="17.61"/>
		
			<ellipse transform="matrix(0.7722 -0.6353 0.6353 0.7722 -34.3355 453.1343)" class="st0" cx="614.81" cy="274.45" rx="17.61" ry="17.61"/>
		
			<ellipse transform="matrix(0.7722 -0.6353 0.6353 0.7722 15.6948 105.1423)" class="st0" cx="154.49" cy="30.68" rx="17.61" ry="17.61"/>
		<path class="st0" d="M314.9,342.65L42.28,67.52c-6.84-6.91-6.79-18.05,0.11-24.9s18.05-6.79,24.9,0.11l272.63,275.13
			c61.6,62.16,161.92,62.62,224.08,1.03c6.91-6.84,18.05-6.79,24.9,0.11c6.84,6.91,6.79,18.05-0.11,24.9
			C512.81,419.19,390.19,418.62,314.9,342.65z"/>
		<path class="st0" d="M377.43,280.69L179.16,80.59c-6.84-6.91-6.79-18.05,0.11-24.9s18.05-6.79,24.9,0.11l198.27,200.1
			c27.38,27.63,71.96,27.83,99.59,0.46c27.63-27.38,27.83-71.96,0.46-99.59c-21.58-21.78-53.85-26.52-80.08-14.14l0.01,0.02
			c-30.78,14.52-67.5,1.34-82.02-29.43s-1.34-67.5,29.43-82.02l-0.02-0.05c72.14-34.03,160.89-21,220.23,38.88
			c37.64,37.99,56.32,87.64,56.1,137.2v0c-0.04,9.72-7.96,17.57-17.69,17.53c-9.72-0.04-17.57-7.96-17.53-17.69v0
			c0.19-40.55-15.1-81.17-45.9-112.25c-48.55-49-121.17-59.66-180.19-31.81l0.02,0.04c-13.19,6.22-18.84,21.96-12.61,35.15
			s21.96,18.84,35.15,12.61l-0.01-0.03c39.35-18.56,87.76-11.46,120.12,21.21c41.06,41.44,40.76,108.32-0.68,149.39
			S418.5,322.13,377.43,280.69z"/>
	</g>
	<g>
		<g>
			<path class="st0" d="M779.95,98.6c0.04-8.37-6.72-15.19-15.09-15.23c-8.37-0.04-15.19,6.72-15.23,15.09
				c-0.04,8.37,6.72,15.19,15.09,15.23C773.1,113.73,779.92,106.97,779.95,98.6z"/>
			<path class="st0" d="M1125.14,115.34c8.37,0.04,15.19-6.72,15.23-15.09c0.04-8.37-6.72-15.19-15.09-15.23
				c-8.37-0.04-15.19,6.72-15.23,15.09C1110.02,108.48,1116.77,115.3,1125.14,115.34z"/>
			<path class="st0" d="M1559.44,3.66l-53.05-0.24l0,0c-6.28-0.03-11.68,3.76-14.01,9.19c-0.78,1.81-1.21,3.8-1.22,5.89v0
				l-0.76,166.71c-0.04,8.37,6.72,15.19,15.09,15.23l0,0c8.37,0.04,15.19-6.72,15.23-15.09l0.69-151.56l37.89,0.17
				c8.37,0.04,15.19-6.72,15.22-15.09S1567.81,3.69,1559.44,3.66z"/>
			<circle class="st0" cx="1453.28" cy="18.33" r="15.16"/>
			<path class="st0" d="M1674.17,87.74l-37.89-0.17l0.31-68.4c0.04-8.37-6.72-15.19-15.09-15.23c-8.37-0.04-15.19,6.72-15.23,15.09
				l-0.76,166.71c-0.04,8.37,6.72,15.19,15.09,15.23c8.37,0.04,15.19-6.72,15.23-15.09l0.31-68l37.89,0.17
				c8.37,0.04,15.19-6.72,15.23-15.09S1682.54,87.78,1674.17,87.74z"/>
			<path class="st0" d="M1727.6,4.42c-8.37-0.04-15.19,6.72-15.23,15.09l-0.76,166.71c-0.04,8.37,6.72,15.19,15.09,15.23
				c8.37,0.04,15.19-6.72,15.23-15.09l0.76-166.71C1742.73,11.28,1735.97,4.46,1727.6,4.42z"/>
			<path class="st0" d="M1231.76,1.66l-106.09-0.49c-8.37-0.04-15.19,6.72-15.22,15.09s6.72,15.19,15.09,15.23l106.09,0.49
				c8.37,0.04,15.19-6.72,15.23-15.09C1246.88,8.51,1240.13,1.7,1231.76,1.66z"/>
			<path class="st0" d="M1231.37,85.51l-53.04-0.24c-8.37-0.04-15.19,6.72-15.22,15.09s6.72,15.19,15.09,15.23l53.04,0.24
				c8.37,0.04,15.19-6.72,15.22-15.09C1246.5,92.37,1239.74,85.55,1231.37,85.51z"/>
			<path class="st0" d="M1230.99,168.87l-106.09-0.49c-8.37-0.04-15.19,6.72-15.22,15.09c-0.04,8.37,6.72,15.19,15.09,15.23
				l106.09,0.49c8.37,0.04,15.19-6.72,15.23-15.09C1246.12,175.73,1239.36,168.91,1230.99,168.87z"/>
			<path class="st0" d="M1807.58,118.46c8.37,0.04,15.19-6.72,15.23-15.09c0.04-8.37-6.72-15.19-15.09-15.23
				c-8.37-0.04-15.19,6.72-15.23,15.09C1792.46,111.61,1799.21,118.42,1807.58,118.46z"/>
			<path class="st0" d="M1807.97,34.61l106.09,0.49c8.37,0.04,15.19-6.72,15.23-15.09c0.04-8.37-6.72-15.19-15.09-15.23L1808.1,4.3
				c-8.37-0.04-15.19,6.72-15.22,15.09S1799.6,34.57,1807.97,34.61z"/>
			<path class="st0" d="M1913.81,88.64l-53.04-0.24c-8.37-0.04-15.19,6.72-15.22,15.09s6.72,15.19,15.09,15.23l53.04,0.24
				c8.37,0.04,15.19-6.72,15.22-15.09C1928.94,95.49,1922.18,88.67,1913.81,88.64z"/>
			<path class="st0" d="M1913.43,171.99l-106.09-0.49c-8.37-0.04-15.19,6.72-15.22,15.09c-0.04,8.37,6.72,15.19,15.09,15.23
				l106.09,0.49c8.37,0.04,15.19-6.72,15.23-15.09C1928.56,178.85,1921.8,172.03,1913.43,171.99z"/>
			<path class="st0" d="M1058.41,58.18c0.14-31.39-25.19-56.95-56.57-57.09l-42.77-0.18l-21.64-0.1
				c-8.37-0.04-15.19,6.72-15.23,15.09c-0.04,8.37,6.72,15.19,15.09,15.23l21.64,0.1l42.77,0.18c14.65,0.07,26.47,12,26.4,26.64
				s-12,26.47-26.64,26.4l-15.9-0.07c-4.19-0.02-7.99,1.66-10.74,4.4c-2.76,2.73-4.48,6.52-4.5,10.71c-0.01,3.2,0.98,6.17,2.66,8.62
				l-0.01,0l56.84,82.99c0.22,0.36,0.46,0.71,0.72,1.05l0.45,0.66l0.05-0.04c2.76,3.36,6.89,5.55,11.58,5.57
				c8.37,0.04,15.19-6.72,15.23-15.09c0.02-3.62-1.29-6.9-3.39-9.51l0.05-0.04l-42.13-59.97
				C1038.48,108.69,1058.28,85.79,1058.41,58.18z"/>
			<path class="st0" d="M829.66,0.32l0-0.02L765.26,0c-8.38-0.04-15.2,6.72-15.24,15.1c-0.04,8.38,6.72,15.2,15.1,15.24l64.4,0.29v0
				c14.65,0.07,26.47,12,26.4,26.64c-0.07,14.65-12,26.47-26.64,26.4l0-0.01l-11.36-0.05c-8.38-0.04-15.2,6.72-15.24,15.1v0
				c-0.04,8.38,6.72,15.2,15.1,15.24l11.36,0.05l0-0.01c14.65,0.07,26.47,12,26.4,26.64c-0.07,14.65-12,26.47-26.64,26.4l0-0.03
				l-64.4-0.29c-8.38-0.04-15.2,6.72-15.24,15.1c-0.04,8.38,6.72,15.2,15.1,15.24l64.4,0.29v0.01
				c31.39,0.14,56.95-25.19,57.09-56.57c0.08-16.49-6.92-31.33-18.1-41.76c11.27-10.33,18.4-25.1,18.48-41.59
				C886.38,26.02,861.05,0.46,829.66,0.32z"/>
			<path class="st0" d="M1373.63,12.79c-0.04-0.12-0.11-0.22-0.16-0.33c-0.1-0.25-0.19-0.49-0.3-0.73
				c-0.14-0.32-0.33-0.62-0.49-0.93c-0.19-0.35-0.35-0.7-0.56-1.03c-0.12-0.19-0.25-0.37-0.37-0.56c-0.2-0.29-0.44-0.56-0.67-0.83
				c-0.26-0.31-0.49-0.64-0.77-0.93c-0.14-0.15-0.29-0.29-0.44-0.44c-0.26-0.26-0.56-0.48-0.84-0.71c-0.3-0.25-0.58-0.51-0.9-0.74
				c-0.19-0.14-0.38-0.26-0.58-0.38c-0.3-0.19-0.62-0.35-0.94-0.52c-0.33-0.18-0.64-0.38-0.98-0.53c-0.26-0.12-0.52-0.21-0.78-0.32
				c-0.11-0.04-0.2-0.11-0.32-0.15c-0.22-0.08-0.44-0.1-0.66-0.17c-0.34-0.11-0.68-0.23-1.03-0.32c-0.29-0.07-0.58-0.11-0.87-0.16
				c-0.36-0.06-0.71-0.1-1.07-0.14c-0.35-0.04-0.7-0.08-1.06-0.09c-0.14,0-0.26-0.04-0.4-0.04c-0.15,0-0.29,0.04-0.44,0.04
				c-0.37,0.01-0.74,0.05-1.1,0.08c-0.35,0.03-0.69,0.06-1.03,0.12c-0.29,0.05-0.58,0.1-0.86,0.16c-0.37,0.08-0.72,0.21-1.07,0.32
				c-0.22,0.07-0.44,0.09-0.66,0.16c-0.1,0.04-0.18,0.1-0.28,0.13c-0.26,0.1-0.52,0.2-0.78,0.32c-0.35,0.16-0.68,0.36-1.02,0.54
				c-0.3,0.16-0.62,0.31-0.91,0.49c-0.2,0.13-0.39,0.25-0.58,0.38c-0.33,0.23-0.62,0.5-0.93,0.75c-0.28,0.23-0.57,0.44-0.82,0.68
				c-0.15,0.14-0.29,0.29-0.44,0.44c-0.29,0.3-0.54,0.63-0.81,0.95c-0.22,0.27-0.45,0.52-0.65,0.8c-0.13,0.18-0.25,0.37-0.37,0.56
				c-0.22,0.34-0.4,0.7-0.59,1.06c-0.16,0.3-0.34,0.59-0.48,0.9c-0.11,0.24-0.2,0.49-0.3,0.74c-0.05,0.13-0.13,0.24-0.18,0.37
				l-42.99,118.7c-2.85,7.87,1.22,16.56,9.09,19.41c7.87,2.85,16.56-1.22,19.41-9.09l28.66-79.13l45.56,127.25
				c2.82,7.88,11.5,11.98,19.38,9.16c7.88-2.82,11.98-11.5,9.16-19.38L1373.63,12.79z"/>
			<path class="st0" d="M1298.04,169.18c-8.37-0.04-15.19,6.72-15.23,15.09c-0.04,8.37,6.72,15.19,15.09,15.23
				c8.37,0.04,15.19-6.72,15.23-15.09C1313.17,176.03,1306.41,169.22,1298.04,169.18z"/>
		</g>
		<g>
			<g>
				<path class="st0" d="M1300.4,386.88l-29.67-82.85c-0.02-0.06-0.06-0.11-0.08-0.16c-0.05-0.12-0.1-0.24-0.15-0.36
					c-0.07-0.16-0.16-0.31-0.25-0.47c-0.09-0.17-0.17-0.35-0.28-0.51c-0.06-0.09-0.12-0.19-0.19-0.28c-0.1-0.14-0.22-0.27-0.33-0.41
					c-0.13-0.16-0.25-0.32-0.38-0.46c-0.07-0.07-0.15-0.15-0.22-0.22c-0.13-0.13-0.28-0.24-0.42-0.35
					c-0.15-0.12-0.29-0.25-0.44-0.36c-0.09-0.07-0.19-0.13-0.29-0.19c-0.15-0.1-0.31-0.17-0.47-0.26c-0.16-0.09-0.32-0.19-0.49-0.26
					c-0.13-0.06-0.26-0.11-0.39-0.16c-0.05-0.02-0.1-0.06-0.16-0.08h0c-0.11-0.04-0.22-0.05-0.33-0.08
					c-0.17-0.05-0.34-0.12-0.51-0.16c-0.14-0.03-0.29-0.06-0.43-0.08c-0.18-0.03-0.35-0.05-0.53-0.07
					c-0.18-0.02-0.35-0.04-0.53-0.04c-0.07,0-0.13-0.02-0.2-0.02c-0.07,0-0.14,0.02-0.22,0.02c-0.18,0-0.37,0.02-0.55,0.04
					c-0.17,0.02-0.34,0.03-0.51,0.06c-0.14,0.02-0.29,0.05-0.43,0.08c-0.18,0.04-0.36,0.1-0.53,0.16c-0.11,0.03-0.22,0.04-0.33,0.08
					c-0.05,0.02-0.09,0.05-0.14,0.07c-0.13,0.05-0.26,0.1-0.39,0.16c-0.18,0.08-0.34,0.18-0.51,0.27c-0.15,0.08-0.31,0.15-0.45,0.25
					c-0.1,0.06-0.19,0.12-0.29,0.19c-0.16,0.11-0.31,0.25-0.46,0.37c-0.14,0.11-0.28,0.22-0.41,0.34c-0.07,0.07-0.15,0.14-0.22,0.22
					c-0.14,0.15-0.27,0.31-0.4,0.47c-0.11,0.13-0.23,0.26-0.32,0.4c-0.06,0.09-0.12,0.18-0.18,0.28c-0.11,0.17-0.2,0.35-0.29,0.53
					c-0.08,0.15-0.17,0.29-0.24,0.44c-0.05,0.12-0.1,0.24-0.15,0.36c-0.03,0.06-0.06,0.12-0.09,0.18l-21.35,58.93
					c-1.42,3.91,0.6,8.22,4.51,9.64h0c3.91,1.42,8.22-0.6,9.64-4.51l14.23-39.29l22.62,63.18c1.4,3.91,5.71,5.95,9.62,4.55l0,0
					C1299.76,395.1,1301.8,390.8,1300.4,386.88z"/>
				<path class="st0" d="M1233.2,381.68c-4.16-0.02-7.54,3.33-7.56,7.49s3.33,7.54,7.49,7.56s7.54-3.33,7.56-7.49
					C1240.71,385.08,1237.36,381.7,1233.2,381.68z"/>
			</g>
			<g>
				<path class="st0" d="M824.02,386.88l-29.67-82.85c-0.02-0.06-0.06-0.11-0.08-0.16c-0.05-0.12-0.1-0.24-0.15-0.36
					c-0.07-0.16-0.16-0.31-0.25-0.47c-0.09-0.17-0.17-0.35-0.28-0.51c-0.06-0.09-0.12-0.19-0.19-0.28c-0.1-0.14-0.22-0.27-0.33-0.41
					c-0.13-0.16-0.25-0.32-0.38-0.46c-0.07-0.07-0.15-0.15-0.22-0.22c-0.13-0.13-0.28-0.24-0.42-0.35
					c-0.15-0.12-0.29-0.25-0.44-0.36c-0.09-0.07-0.19-0.13-0.29-0.19c-0.15-0.1-0.31-0.17-0.47-0.26c-0.16-0.09-0.32-0.19-0.49-0.26
					c-0.13-0.06-0.26-0.11-0.39-0.16c-0.05-0.02-0.1-0.06-0.16-0.08h0c-0.11-0.04-0.22-0.05-0.33-0.08
					c-0.17-0.05-0.34-0.12-0.51-0.16c-0.14-0.03-0.29-0.06-0.43-0.08c-0.18-0.03-0.35-0.05-0.53-0.07
					c-0.18-0.02-0.35-0.04-0.53-0.04c-0.07,0-0.13-0.02-0.2-0.02c-0.07,0-0.14,0.02-0.22,0.02c-0.18,0-0.37,0.02-0.55,0.04
					c-0.17,0.02-0.34,0.03-0.51,0.06c-0.14,0.02-0.29,0.05-0.43,0.08c-0.18,0.04-0.36,0.1-0.53,0.16c-0.11,0.03-0.22,0.04-0.33,0.08
					c-0.05,0.02-0.09,0.05-0.14,0.07c-0.13,0.05-0.26,0.1-0.39,0.16c-0.18,0.08-0.34,0.18-0.51,0.27c-0.15,0.08-0.31,0.15-0.45,0.25
					c-0.1,0.06-0.19,0.12-0.29,0.19c-0.16,0.11-0.31,0.25-0.46,0.37c-0.14,0.11-0.28,0.22-0.41,0.34c-0.07,0.07-0.15,0.14-0.22,0.22
					c-0.14,0.15-0.27,0.31-0.4,0.47c-0.11,0.13-0.23,0.26-0.32,0.4c-0.06,0.09-0.12,0.18-0.18,0.28c-0.11,0.17-0.2,0.35-0.29,0.53
					c-0.08,0.15-0.17,0.29-0.24,0.44c-0.05,0.12-0.1,0.24-0.15,0.36c-0.03,0.06-0.06,0.12-0.09,0.18l-21.35,58.93
					c-1.42,3.91,0.6,8.22,4.51,9.64h0c3.91,1.42,8.22-0.6,9.64-4.51l14.23-39.29l22.62,63.18c1.4,3.91,5.71,5.95,9.62,4.55l0,0
					C823.38,395.1,825.42,390.8,824.02,386.88z"/>
				<path class="st0" d="M756.82,381.68c-4.16-0.02-7.54,3.33-7.56,7.49c-0.02,4.16,3.33,7.54,7.49,7.56
					c4.16,0.02,7.54-3.33,7.56-7.49C764.33,385.08,760.98,381.7,756.82,381.68z"/>
			</g>
			<path class="st0" d="M880.39,297.29l7.53,0.03l11.29,0.05l0,0c26.7,0.12,48.3,21.61,48.69,48.19
				c0.39,27.42-22.81,49.76-50.23,49.63l-17.71-0.08c-4.16-0.02-7.51-3.4-7.49-7.56l0,0c0.02-4.16,3.4-7.51,7.56-7.49l17.93,0.08
				c18.98,0.09,35.17-15.37,34.9-34.35c-0.26-18.41-15.22-33.29-33.7-33.37l-11.29-0.05l-0.09,18.81c-0.02,4.16-3.4,7.51-7.56,7.49
				l0,0c-4.16-0.02-7.51-3.4-7.49-7.56l0.09-18.81l0.03-7.53C872.85,300.62,876.24,297.27,880.39,297.29L880.39,297.29z"/>
			<path class="st0" d="M979.52,395.57L979.52,395.57c-4.16-0.02-7.51-3.4-7.49-7.56l0.38-82.78c0.02-4.16,3.4-7.51,7.56-7.49h0
				c4.16,0.02,7.51,3.4,7.49,7.56l-0.38,82.78C987.06,392.24,983.68,395.59,979.52,395.57z"/>
			<path class="st0" d="M1118.63,396.21L1118.63,396.21c-4.16-0.02-7.51-3.4-7.49-7.56l0.38-82.78c0.02-4.16,3.4-7.51,7.56-7.49l0,0
				c4.16,0.02,7.51,3.4,7.49,7.56l-0.38,82.78C1126.17,392.87,1122.79,396.23,1118.63,396.21z"/>
			<g>
				<path class="st0" d="M1211.29,298.8l-26.34-0.12c-2.08-0.01-3.96,0.82-5.33,2.18c-0.68,0.68-1.24,1.49-1.62,2.38
					c-0.39,0.9-0.6,1.89-0.6,2.93l0,0v0l-0.38,82.78c-0.02,4.16,3.33,7.54,7.49,7.56c4.16,0.02,7.54-3.33,7.56-7.49l0.34-75.25
					l18.81,0.09c4.16,0.02,7.54-3.33,7.56-7.49S1215.44,298.82,1211.29,298.8z"/>
				<path class="st0" d="M1158.61,298.56c-4.16-0.02-7.54,3.33-7.56,7.49s3.33,7.54,7.49,7.56c4.16,0.02,7.54-3.33,7.56-7.49
					C1166.12,301.96,1162.77,298.58,1158.61,298.56z"/>
			</g>
			<g>
				<path class="st0" d="M1079.26,396.03l-7.53-0.03l-11.29-0.05l0,0c-26.7-0.12-48.3-21.61-48.69-48.19
					c-0.39-27.42,22.81-49.76,50.23-49.63l17.71,0.08c4.16,0.02,7.51,3.4,7.49,7.56v0c-0.02,4.16-3.4,7.51-7.56,7.49l-17.93-0.08
					c-18.98-0.09-35.17,15.37-34.9,34.35c0.26,18.41,15.22,33.29,33.7,33.37l11.29,0.05l0.09-18.81c0.02-4.16,3.4-7.51,7.56-7.49
					l0,0c4.16,0.02,7.51,3.4,7.49,7.56l-0.09,18.81l-0.03,7.53C1086.8,392.69,1083.41,396.05,1079.26,396.03L1079.26,396.03z"/>
				
					<ellipse transform="matrix(4.576130e-03 -1 1 4.576130e-03 703.5524 1400.7853)" class="st0" cx="1055.38" cy="347" rx="7.53" ry="7.53"/>
			</g>
			<g>
				<path class="st0" d="M1327.47,299.33c-4.16-0.02-7.54,3.33-7.56,7.49l-0.38,82.78c-0.02,4.16,3.33,7.54,7.49,7.56
					c4.16,0.02,7.54-3.33,7.56-7.49l0.38-82.78C1334.98,302.74,1331.63,299.35,1327.47,299.33z"/>
				<path class="st0" d="M1379.77,382.35l-26.18-0.12c-4.16-0.02-7.54,3.33-7.56,7.49c-0.02,4.16,3.33,7.54,7.49,7.56l26.18,0.12
					c4.16,0.02,7.54-3.33,7.56-7.49C1387.28,385.76,1383.93,382.37,1379.77,382.35z"/>
			</g>
			
				<ellipse transform="matrix(4.575839e-03 -1 1 4.575839e-03 1264.7914 1970.0293)" class="st0" cx="1621.93" cy="349.72" rx="7.53" ry="7.53"/>
			<g>
				<path class="st0" d="M1837.53,301.79l-26.34-0.12c-4.16-0.02-7.54,3.33-7.56,7.49l0,0v0l-0.38,82.78
					c-0.02,4.16,3.33,7.54,7.49,7.56s7.54-3.33,7.56-7.49l0.34-75.25l18.81,0.09c4.16,0.02,7.54-3.33,7.56-7.49
					S1841.69,301.81,1837.53,301.79z"/>
				<path class="st0" d="M1784.85,301.55c-4.16-0.02-7.54,3.33-7.56,7.49s3.33,7.54,7.49,7.56c4.16,0.02,7.54-3.33,7.56-7.49
					C1792.36,304.95,1789.01,301.57,1784.85,301.55z"/>
			</g>
			<g>
				<path class="st0" d="M1894.5,343.54l-18.81-0.09l0.16-33.96c0.02-4.16-3.33-7.54-7.49-7.56c-4.16-0.02-7.54,3.33-7.56,7.49
					l-0.38,82.78c-0.02,4.16,3.33,7.54,7.49,7.56s7.54-3.33,7.56-7.49l0.15-33.76l18.81,0.09c4.16,0.02,7.54-3.33,7.56-7.49
					C1902.01,346.94,1898.65,343.56,1894.5,343.54z"/>
				<path class="st0" d="M1921.03,302.17L1921.03,302.17c-4.16-0.02-7.54,3.33-7.56,7.49l-0.38,82.78
					c-0.02,4.16,3.33,7.54,7.49,7.56h0c4.16,0.02,7.54-3.33,7.56-7.49l0.38-82.78C1928.54,305.58,1925.18,302.19,1921.03,302.17z"/>
			</g>
			<path class="st0" d="M1622.08,315.61l52.68,0.24c4.16,0.02,7.54-3.33,7.56-7.49v0c0.02-4.16-3.33-7.54-7.49-7.56l-52.68-0.24
				c-4.16-0.02-7.54,3.33-7.56,7.49v0C1614.57,312.21,1617.93,315.59,1622.08,315.61z"/>
			<path class="st0" d="M1648.23,357.36l26.34,0.12c4.16,0.02,7.54-3.33,7.56-7.49v0c0.02-4.16-3.33-7.54-7.49-7.56l-26.34-0.12
				c-4.16-0.02-7.54,3.33-7.56,7.49l0,0C1640.72,353.96,1644.08,357.35,1648.23,357.36z"/>
			<path class="st0" d="M1621.7,398.63l52.68,0.24c4.16,0.02,7.54-3.33,7.56-7.49l0,0c0.02-4.16-3.33-7.54-7.49-7.56l-52.68-0.24
				c-4.16-0.02-7.54,3.33-7.56,7.49l0,0C1614.19,395.23,1617.55,398.61,1621.7,398.63z"/>
			<path class="st0" d="M1586.81,386.21l-20.92-29.78c12.97-2.49,22.8-13.87,22.86-27.57c0.07-15.59-12.51-28.28-28.09-28.35
				l-21.24-0.09l-10.75-0.05c-4.16-0.02-7.54,3.33-7.56,7.49c-0.02,4.16,3.33,7.54,7.49,7.56l10.75,0.05l21.24,0.09
				c7.27,0.03,13.14,5.96,13.11,13.23c-0.03,7.27-5.96,13.14-13.23,13.11l-7.89-0.04c-2.08-0.01-3.97,0.83-5.33,2.18
				c-1.37,1.36-2.23,3.24-2.23,5.32c-0.01,1.59,0.48,3.06,1.32,4.28l0,0l28.22,41.21c0.11,0.18,0.23,0.35,0.36,0.52l0.22,0.33
				l0.03-0.02c1.37,1.67,3.42,2.76,5.75,2.77c4.16,0.02,7.54-3.33,7.56-7.49c0.01-1.8-0.64-3.43-1.68-4.72L1586.81,386.21z"/>
			<g>
				<path class="st0" d="M1450.5,348.93c0.02-4.16-3.33-7.54-7.49-7.56c-4.16-0.02-7.54,3.33-7.56,7.49
					c-0.02,4.16,3.33,7.54,7.49,7.56C1447.1,356.44,1450.48,353.09,1450.5,348.93z"/>
				<path class="st0" d="M1503.27,328.48c0.07-15.59-12.51-28.28-28.09-28.35v-0.01l-31.98-0.15c-4.16-0.02-7.55,3.34-7.56,7.5
					c-0.02,4.16,3.34,7.55,7.5,7.56l31.98,0.15v0c7.27,0.03,13.14,5.96,13.11,13.23c-0.03,7.27-5.96,13.14-13.23,13.11l0-0.01
					l-5.64-0.03c-4.16-0.02-7.55,3.34-7.56,7.5v0c-0.02,4.16,3.34,7.55,7.5,7.56l5.64,0.03v-0.01c7.27,0.03,13.14,5.96,13.11,13.23
					s-5.96,13.14-13.23,13.11v-0.01l-31.98-0.15c-4.16-0.02-7.55,3.34-7.56,7.5s3.34,7.55,7.5,7.56l31.98,0.15v0
					c15.59,0.07,28.28-12.51,28.35-28.09c0.04-8.19-3.44-15.56-8.98-20.74C1499.69,344,1503.23,336.67,1503.27,328.48z"/>
			</g>
			<g>
				<path class="st0" d="M1774.94,389.18l-29.67-82.85c-0.02-0.06-0.06-0.11-0.08-0.16c-0.05-0.12-0.1-0.24-0.15-0.36
					c-0.07-0.16-0.16-0.31-0.25-0.47c-0.09-0.17-0.17-0.35-0.28-0.51c-0.06-0.09-0.12-0.19-0.19-0.28c-0.1-0.14-0.22-0.27-0.33-0.41
					c-0.13-0.16-0.25-0.32-0.38-0.46c-0.07-0.07-0.15-0.15-0.22-0.22c-0.13-0.13-0.28-0.24-0.42-0.35
					c-0.15-0.12-0.29-0.25-0.44-0.36c-0.09-0.07-0.19-0.13-0.29-0.19c-0.15-0.1-0.31-0.17-0.47-0.26c-0.16-0.09-0.32-0.19-0.49-0.26
					c-0.13-0.06-0.26-0.11-0.39-0.16c-0.06-0.02-0.1-0.06-0.16-0.08l0,0c-0.11-0.04-0.22-0.05-0.33-0.08
					c-0.17-0.05-0.34-0.12-0.51-0.16c-0.14-0.03-0.29-0.06-0.43-0.08c-0.18-0.03-0.35-0.05-0.53-0.07
					c-0.18-0.02-0.35-0.04-0.53-0.04c-0.07,0-0.13-0.02-0.2-0.02c-0.07,0-0.14,0.02-0.22,0.02c-0.18,0-0.37,0.02-0.55,0.04
					c-0.17,0.02-0.34,0.03-0.51,0.06c-0.14,0.02-0.29,0.05-0.43,0.08c-0.18,0.04-0.36,0.1-0.53,0.16c-0.11,0.03-0.22,0.04-0.33,0.08
					c-0.05,0.02-0.09,0.05-0.14,0.07c-0.13,0.05-0.26,0.1-0.39,0.16c-0.18,0.08-0.34,0.18-0.51,0.27c-0.15,0.08-0.31,0.15-0.45,0.25
					c-0.1,0.06-0.19,0.12-0.29,0.19c-0.16,0.11-0.31,0.25-0.46,0.37c-0.14,0.11-0.28,0.22-0.41,0.34c-0.07,0.07-0.15,0.14-0.22,0.22
					c-0.14,0.15-0.27,0.31-0.4,0.47c-0.11,0.13-0.23,0.26-0.32,0.4c-0.06,0.09-0.12,0.18-0.18,0.28c-0.11,0.17-0.2,0.35-0.29,0.53
					c-0.08,0.15-0.17,0.29-0.24,0.44c-0.05,0.12-0.1,0.24-0.15,0.36c-0.03,0.06-0.06,0.12-0.09,0.18l-21.35,58.93
					c-1.42,3.91,0.6,8.22,4.51,9.64h0c3.91,1.42,8.22-0.6,9.64-4.51l14.23-39.29l22.62,63.18c1.4,3.91,5.71,5.95,9.62,4.55l0,0
					C1774.3,397.4,1776.34,393.09,1774.94,389.18z"/>
				<path class="st0" d="M1707.74,383.98c-4.16-0.02-7.54,3.33-7.56,7.49c-0.02,4.16,3.33,7.54,7.49,7.56
					c4.16,0.02,7.54-3.33,7.56-7.49C1715.25,387.38,1711.9,383.99,1707.74,383.98z"/>
			</g>
		</g>
	</g>
</g>
</svg>
