<?xml version="1.0" encoding="utf-8"?>
<!-- Generator: Adobe Illustrator 23.0.6, SVG Export Plug-In . SVG Version: 6.00 Build 0)  -->
<svg version="1.1" id="Layer_1" xmlns="http://www.w3.org/2000/svg" xmlns:xlink="http://www.w3.org/1999/xlink" x="0px" y="0px"
	 viewBox="0 0 852.22 527.58" style="enable-background:new 0 0 852.22 527.58;" xml:space="preserve">
<style type="text/css">
	.st0{fill:#FFFFFF;}
</style>
<g>
	
		<ellipse transform="matrix(0.7722 -0.6353 0.6353 0.7722 -9.4644 20.0429)" class="st0" cx="23.22" cy="23.22" rx="23.22" ry="23.22"/>
	
		<ellipse transform="matrix(0.7722 -0.6353 0.6353 0.7722 -45.2872 597.6661)" class="st0" cx="810.92" cy="361.99" rx="23.22" ry="23.22"/>
	
		<ellipse transform="matrix(0.7722 -0.6353 0.6353 0.7722 20.7008 138.6785)" class="st0" cx="203.76" cy="40.47" rx="23.22" ry="23.22"/>
	<path class="st0" d="M415.34,451.94L55.76,89.05c-9.03-9.11-8.96-23.81,0.15-32.84s23.81-8.96,32.84,0.15l359.58,362.89
		c81.24,81.99,213.57,82.6,295.56,1.35c9.11-9.03,23.81-8.96,32.84,0.15c9.03,9.11,8.96,23.81-0.15,32.84
		C676.37,552.89,514.64,552.15,415.34,451.94z"/>
	<path class="st0" d="M497.82,370.22L236.3,106.3c-9.03-9.11-8.96-23.81,0.15-32.84s23.81-8.96,32.84,0.15l261.51,263.92
		c36.11,36.44,94.92,36.71,131.36,0.6s36.71-94.92,0.6-131.36c-28.46-28.72-71.03-34.97-105.63-18.65l0.01,0.02
		c-40.6,19.15-89.03,1.77-108.18-38.82c-19.15-40.6-1.77-89.03,38.82-108.18l-0.03-0.06c95.14-44.89,212.2-27.7,290.47,51.28
		c49.65,50.1,74.29,115.59,73.99,180.96v0c-0.06,12.82-10.5,23.17-23.33,23.11c-12.82-0.06-23.17-10.5-23.11-23.33v0
		c0.24-53.49-19.91-107.06-60.54-148.06C681.2,60.42,585.43,46.36,507.58,83.09l0.02,0.05c-17.4,8.21-24.85,28.97-16.64,46.36
		s28.97,24.85,46.36,16.64l-0.02-0.03c51.9-24.49,115.75-15.11,158.44,27.97c54.16,54.66,53.76,142.88-0.9,197.04
		S551.98,424.88,497.82,370.22z"/>
</g>
</svg>
