<?xml version="1.0" encoding="utf-8"?>
<!-- Generator: Adobe Illustrator 23.1.1, SVG Export Plug-In . SVG Version: 6.00 Build 0)  -->
<svg version="1.1" id="Layer_1" xmlns="http://www.w3.org/2000/svg" xmlns:xlink="http://www.w3.org/1999/xlink" x="0px" y="0px"
	 viewBox="0 0 209.74 141.42" style="enable-background:new 0 0 209.74 141.42;" xml:space="preserve">
<style type="text/css">
	.st0{fill:#FFFFFF;}
</style>
<g>
	<g>
		<path class="st0" d="M100.55,41.37L100.55,41.37L100.55,41.37L100.55,41.37L100.55,41.37c5.85,5.85,15.35,5.85,21.2,0
			c5.85-5.85,5.85-15.35,0-21.2c-5.85-5.85-15.35-5.85-21.2,0l0,0c-0.01,0.01-0.02,0.01-0.02,0.02c-0.98,0.98-0.98,2.56,0,3.53
			c0.98,0.98,2.56,0.98,3.53,0c0.01-0.01,0.01-0.02,0.02-0.02l0,0c3.9-3.9,10.23-3.9,14.13,0c3.9,3.9,3.9,10.23,0,14.13
			c-3.9,3.9-10.23,3.9-14.13,0L74.05,7.8c-0.98-0.98-2.56-0.98-3.53,0c-0.98,0.98-0.98,2.56,0,3.53L100.55,41.37z"/>
	</g>
	<g>
		<path class="st0" d="M50.71,2.19c-0.83-0.56-1.95-0.56-2.78,0c-1.48,1.01-1.48,3.15,0,4.16c0.83,0.56,1.95,0.56,2.78,0
			C52.19,5.34,52.19,3.2,50.71,2.19z"/>
	</g>
	<g>
		<path class="st0" d="M63.83,4.58c0.83,0.56,1.95,0.56,2.78,0c1.48-1.01,1.48-3.15,0-4.16c-0.83-0.56-1.95-0.56-2.78,0
			C62.35,1.43,62.35,3.57,63.83,4.58z"/>
	</g>
	<g>
		<path class="st0" d="M135.62,38.25c-1.5-0.98-3.48-0.16-3.84,1.59c-0.2,0.98,0.23,2.02,1.06,2.56c1.5,0.98,3.48,0.16,3.84-1.59
			C136.89,39.84,136.46,38.8,135.62,38.25z"/>
	</g>
	<g>
		<path class="st0" d="M126.96,46.76c-8.79,8.69-22.96,8.66-31.7-0.09L58.23,9.65c-0.97-0.97-2.57-1.07-3.57-0.13
			c-1.02,0.97-1.04,2.59-0.05,3.58l37.1,37.1l0,0c10.73,10.73,28.13,10.73,38.87,0c1-1,0.98-2.62-0.06-3.59
			C129.52,45.67,127.93,45.8,126.96,46.76z"/>
	</g>
	<g>
		<path class="st0" d="M130.58,11.34c-10.73-10.73-28.13-10.73-38.87,0l0,0c-0.01,0.01-0.02,0.01-0.02,0.02
			c-0.98,0.98-0.98,2.56,0,3.53c0.98,0.98,2.56,0.98,3.53,0c0.01-0.01,0.01-0.02,0.02-0.02l0,0c8.78-8.78,23.02-8.78,31.8,0
			c4.39,4.39,6.59,10.15,6.59,15.9c0,1.38,1.12,2.5,2.5,2.5s2.5-1.12,2.5-2.5v0C138.63,23.73,135.95,16.7,130.58,11.34z"/>
	</g>
</g>
<g>
	<g>
		<path class="st0" d="M61.54,125.71H60.8c-0.08,0-0.15-0.02-0.21-0.06c-0.05-0.04-0.09-0.1-0.12-0.16l-0.66-1.69h-3.15l-0.66,1.69
			c-0.02,0.06-0.06,0.11-0.11,0.16c-0.06,0.04-0.12,0.07-0.21,0.07h-0.73l2.81-7.02h0.96L61.54,125.71z M59.56,123.1l-1.1-2.85
			c-0.03-0.08-0.07-0.18-0.1-0.3c-0.04-0.11-0.07-0.23-0.1-0.36c-0.07,0.26-0.14,0.48-0.21,0.66l-1.1,2.85H59.56z"/>
		<path class="st0" d="M72.68,122.2c0,0.53-0.08,1-0.25,1.43c-0.17,0.43-0.4,0.8-0.71,1.11c-0.3,0.31-0.67,0.54-1.09,0.71
			c-0.43,0.17-0.9,0.25-1.41,0.25H66.6v-7.02h2.62c0.52,0,0.99,0.08,1.41,0.25c0.43,0.17,0.79,0.41,1.09,0.71
			c0.3,0.31,0.54,0.68,0.71,1.11C72.6,121.2,72.68,121.68,72.68,122.2z M71.71,122.2c0-0.43-0.06-0.82-0.18-1.16
			c-0.12-0.34-0.28-0.63-0.5-0.86c-0.21-0.24-0.48-0.42-0.78-0.54s-0.65-0.19-1.03-0.19h-1.67v5.48h1.67c0.38,0,0.72-0.06,1.03-0.19
			s0.57-0.3,0.78-0.54c0.22-0.23,0.38-0.52,0.5-0.86C71.65,123.02,71.71,122.63,71.71,122.2z"/>
		<path class="st0" d="M75.97,125.71h-0.95v-7.02h0.95V125.71z"/>
		<path class="st0" d="M84.45,122.33v2.69c-0.35,0.25-0.73,0.44-1.13,0.57c-0.4,0.13-0.84,0.19-1.31,0.19
			c-0.56,0-1.07-0.09-1.53-0.26c-0.45-0.17-0.84-0.42-1.16-0.73c-0.32-0.32-0.57-0.69-0.74-1.13s-0.26-0.93-0.26-1.45
			c0-0.54,0.08-1.02,0.25-1.46c0.17-0.44,0.41-0.82,0.72-1.13c0.31-0.32,0.69-0.56,1.13-0.73c0.44-0.17,0.94-0.26,1.49-0.26
			c0.28,0,0.54,0.02,0.77,0.06s0.46,0.1,0.66,0.18c0.2,0.08,0.39,0.17,0.56,0.28c0.17,0.11,0.33,0.23,0.49,0.37l-0.27,0.43
			c-0.04,0.07-0.1,0.11-0.16,0.12c-0.07,0.02-0.14,0-0.22-0.05c-0.08-0.05-0.17-0.1-0.27-0.17c-0.1-0.07-0.22-0.13-0.37-0.19
			c-0.15-0.06-0.32-0.11-0.51-0.15c-0.2-0.04-0.43-0.06-0.7-0.06c-0.4,0-0.75,0.06-1.07,0.19c-0.32,0.13-0.59,0.31-0.82,0.55
			c-0.23,0.24-0.4,0.53-0.52,0.87c-0.12,0.34-0.18,0.72-0.18,1.15c0,0.44,0.06,0.83,0.19,1.18s0.31,0.64,0.54,0.89
			s0.52,0.43,0.85,0.56c0.33,0.13,0.71,0.19,1.12,0.19c0.33,0,0.62-0.04,0.87-0.11s0.5-0.18,0.74-0.31v-1.54H82.5
			c-0.06,0-0.11-0.02-0.15-0.05c-0.04-0.04-0.06-0.08-0.06-0.13v-0.54H84.45z"/>
		<path class="st0" d="M87.83,125.71h-0.95v-7.02h0.95V125.71z"/>
		<path class="st0" d="M95.35,119.49h-2.27v6.22h-0.95v-6.22h-2.28v-0.8h5.49V119.49z"/>
		<path class="st0" d="M102.38,125.71h-0.73c-0.08,0-0.15-0.02-0.21-0.06c-0.05-0.04-0.09-0.1-0.12-0.16l-0.66-1.69h-3.15
			l-0.66,1.69c-0.02,0.06-0.06,0.11-0.11,0.16c-0.06,0.04-0.12,0.07-0.21,0.07h-0.73l2.81-7.02h0.96L102.38,125.71z M100.4,123.1
			l-1.1-2.85c-0.03-0.08-0.07-0.18-0.1-0.3c-0.04-0.11-0.07-0.23-0.1-0.36c-0.07,0.26-0.14,0.48-0.21,0.66l-1.1,2.85H100.4z"/>
		<path class="st0" d="M108.27,124.91v0.8h-3.98v-7.02h0.94v6.22H108.27z"/>
		<path class="st0" d="M115.72,118.69c0.43,0,0.8,0.04,1.11,0.13s0.57,0.21,0.77,0.36c0.2,0.16,0.35,0.35,0.44,0.58
			s0.14,0.48,0.14,0.77c0,0.17-0.03,0.34-0.08,0.5c-0.05,0.16-0.13,0.31-0.24,0.44c-0.11,0.14-0.24,0.26-0.41,0.37
			c-0.17,0.11-0.36,0.2-0.58,0.27c0.52,0.1,0.9,0.28,1.16,0.55c0.26,0.27,0.39,0.62,0.39,1.06c0,0.3-0.05,0.57-0.16,0.81
			c-0.11,0.25-0.27,0.46-0.48,0.63c-0.21,0.18-0.47,0.31-0.78,0.41c-0.31,0.1-0.66,0.14-1.05,0.14h-2.48v-7.02H115.72z
			 M114.43,119.44v2.39h1.25c0.27,0,0.5-0.03,0.7-0.09c0.2-0.06,0.36-0.14,0.49-0.24s0.22-0.23,0.29-0.38
			c0.06-0.15,0.09-0.31,0.09-0.49c0-0.41-0.12-0.72-0.37-0.91c-0.25-0.19-0.63-0.29-1.16-0.29H114.43z M115.95,124.95
			c0.27,0,0.5-0.03,0.7-0.09c0.2-0.06,0.36-0.15,0.48-0.26c0.12-0.11,0.22-0.25,0.28-0.4s0.09-0.33,0.09-0.51
			c0-0.36-0.13-0.65-0.39-0.86s-0.64-0.32-1.16-0.32h-1.52v2.44H115.95z"/>
		<path class="st0" d="M125.98,125.71h-0.84c-0.17,0-0.3-0.07-0.38-0.2l-1.82-2.51c-0.06-0.08-0.12-0.13-0.18-0.17
			s-0.16-0.05-0.3-0.05h-0.72v2.93h-0.94v-7.02h1.98c0.44,0,0.83,0.04,1.15,0.13s0.59,0.22,0.8,0.39c0.21,0.17,0.37,0.38,0.47,0.61
			c0.1,0.24,0.15,0.51,0.15,0.81c0,0.25-0.04,0.48-0.12,0.7c-0.08,0.22-0.19,0.41-0.34,0.58c-0.15,0.17-0.33,0.32-0.54,0.44
			s-0.46,0.21-0.73,0.27c0.12,0.07,0.22,0.17,0.31,0.3L125.98,125.71z M122.74,122.09c0.27,0,0.52-0.03,0.73-0.1
			c0.21-0.07,0.39-0.16,0.53-0.28c0.14-0.12,0.25-0.27,0.32-0.44c0.07-0.17,0.11-0.36,0.11-0.56c0-0.42-0.14-0.73-0.41-0.94
			c-0.27-0.21-0.69-0.32-1.23-0.32h-1.04v2.65H122.74z"/>
		<path class="st0" d="M132.24,124.93l0,0.77h-4.32v-7.02h4.32v0.77h-3.37v2.33h2.73v0.75h-2.73v2.39H132.24z"/>
		<path class="st0" d="M140.25,125.71h-0.73c-0.08,0-0.15-0.02-0.21-0.06c-0.05-0.04-0.09-0.1-0.12-0.16l-0.66-1.69h-3.15
			l-0.66,1.69c-0.02,0.06-0.06,0.11-0.11,0.16c-0.06,0.04-0.12,0.07-0.21,0.07h-0.73l2.81-7.02h0.96L140.25,125.71z M138.27,123.1
			l-1.1-2.85c-0.03-0.08-0.07-0.18-0.1-0.3c-0.04-0.11-0.07-0.23-0.1-0.36c-0.07,0.26-0.14,0.48-0.21,0.66l-1.1,2.85H138.27z"/>
		<path class="st0" d="M146.21,119.49h-2.27v6.22h-0.95v-6.22h-2.28v-0.8h5.49V119.49z"/>
		<path class="st0" d="M153.91,118.69v7.02h-0.95v-3.19h-3.79v3.19h-0.95v-7.02h0.95v3.13h3.79v-3.13H153.91z"/>
	</g>
	<g>
		<g>
			<path class="st0" d="M118.12,104.66l-9.1-24.97c-0.33-0.9-1.19-1.51-2.15-1.51h0c-0.96,0-1.82,0.6-2.15,1.51l-6.46,17.82
				c-0.43,1.19,0.18,2.5,1.37,2.93h0c1.19,0.43,2.5-0.18,2.93-1.37l4.31-11.9l6.68,18.32l0.06,0.02l-0.06-0.02l0.22,0.61
				c0.42,1.16,1.68,1.89,2.86,1.53C117.9,107.24,118.56,105.88,118.12,104.66z"/>
		</g>
		<g>
			<path class="st0" d="M97.77,103.24c-1.26,0-2.28,1.02-2.28,2.28c0,1.26,1.02,2.28,2.28,2.28c1.26,0,2.28-1.02,2.28-2.28
				C100.04,104.26,99.02,103.24,97.77,103.24z"/>
		</g>
	</g>
	<g>
		<g>
			<path class="st0" d="M127.87,78.12c-1.26,0-2.28,1.02-2.28,2.28c0,1.26,1.02,2.28,2.28,2.28c1.26,0,2.28-1.02,2.28-2.28
				C130.15,79.14,129.13,78.12,127.87,78.12z"/>
		</g>
		<g>
			<path class="st0" d="M146.05,79.97c-0.2-1.1-1.23-1.85-2.35-1.85h-7.86c-1.26,0-2.28,1.02-2.28,2.28v2.28v22.77
				c0,1.26,1.02,2.28,2.28,2.28h0c1.26,0,2.28-1.02,2.28-2.28V82.67h5.69C145.2,82.67,146.31,81.41,146.05,79.97z"/>
		</g>
	</g>
	<g>
		<g>
			<path class="st0" d="M175.64,78.12c-1.26,0-2.28,1.02-2.28,2.28v10.28h-11.38V80.39c0-1.26-1.02-2.28-2.28-2.28
				c-1.26,0-2.28,1.02-2.28,2.28v25.04c0,1.26,1.02,2.28,2.28,2.28c1.26,0,2.28-1.02,2.28-2.28V95.22h11.38v10.22
				c0,1.26,1.02,2.28,2.28,2.28s2.28-1.02,2.28-2.28V80.39C177.91,79.14,176.89,78.12,175.64,78.12z"/>
		</g>
	</g>
	<g>
		<g>
			<path class="st0" d="M65.94,95.27c1.26,0,2.28-1.02,2.28-2.28s-1.02-2.28-2.28-2.28c-1.26,0-2.28,1.02-2.28,2.28
				S64.68,95.27,65.94,95.27z"/>
		</g>
		<g>
			<path class="st0" d="M81.87,78.12H65.94c-1.26,0-2.28,1.02-2.28,2.28s1.02,2.28,2.28,2.28h15.94c1.26,0,2.28-1.02,2.28-2.28
				S83.13,78.12,81.87,78.12z"/>
		</g>
		<g>
			<path class="st0" d="M81.87,90.71h-7.97c-1.26,0-2.28,1.02-2.28,2.28s1.02,2.28,2.28,2.28h7.97c1.26,0,2.28-1.02,2.28-2.28
				S83.13,90.71,81.87,90.71z"/>
		</g>
		<g>
			<path class="st0" d="M81.87,103.24H65.94c-1.26,0-2.28,1.02-2.28,2.28c0,1.26,1.02,2.28,2.28,2.28h15.94
				c1.26,0,2.28-1.02,2.28-2.28C84.15,104.26,83.13,103.24,81.87,103.24z"/>
		</g>
	</g>
	<g>
		<g>
			<path class="st0" d="M191.53,95.27c1.26,0,2.28-1.02,2.28-2.28s-1.02-2.28-2.28-2.28c-1.26,0-2.28,1.02-2.28,2.28
				S190.27,95.27,191.53,95.27z"/>
		</g>
		<g>
			<path class="st0" d="M191.53,82.67h15.94c1.26,0,2.28-1.02,2.28-2.28s-1.02-2.28-2.28-2.28h-15.94c-1.26,0-2.28,1.02-2.28,2.28
				S190.27,82.67,191.53,82.67z"/>
		</g>
		<g>
			<path class="st0" d="M207.47,90.71h-7.97c-1.26,0-2.28,1.02-2.28,2.28s1.02,2.28,2.28,2.28h7.97c1.26,0,2.28-1.02,2.28-2.28
				S208.72,90.71,207.47,90.71z"/>
		</g>
		<g>
			<path class="st0" d="M207.47,103.24h-15.94c-1.26,0-2.28,1.02-2.28,2.28c0,1.26,1.02,2.28,2.28,2.28h15.94
				c1.26,0,2.28-1.02,2.28-2.28C209.74,104.26,208.72,103.24,207.47,103.24z"/>
		</g>
	</g>
	<g>
		<path class="st0" d="M52.32,86.66c0-4.72-3.82-8.54-8.54-8.54l-6.42,0l-3.25,0c-1.26,0-2.28,1.02-2.28,2.28
			c0,1.26,1.02,2.28,2.28,2.28h3.25l6.42,0c2.2,0,3.98,1.78,3.98,3.98c0,2.2-1.78,3.98-3.98,3.98l-2.39,0
			c-0.63,0-1.2,0.26-1.61,0.67c-0.41,0.41-0.67,0.98-0.67,1.61c0,0.48,0.15,0.93,0.41,1.29l0,0l8.6,12.43
			c0.03,0.05,0.07,0.11,0.11,0.16l0.07,0.1l0.01-0.01c0.42,0.5,1.04,0.83,1.74,0.83c1.26,0,2.28-1.02,2.28-2.28
			c0-0.54-0.2-1.04-0.52-1.43l0.01-0.01l-6.37-8.98C49.36,94.26,52.32,90.8,52.32,86.66z"/>
	</g>
	<g>
		<g>
			<path class="st0" d="M4.55,92.92c0-1.26-1.02-2.28-2.28-2.28C1.02,90.64,0,91.66,0,92.92s1.02,2.28,2.28,2.28
				C3.53,95.2,4.55,94.18,4.55,92.92z"/>
		</g>
		<g>
			<path class="st0" d="M11.95,78.12L11.95,78.12l-9.67,0C1.02,78.12,0,79.14,0,80.4c0,1.26,1.02,2.28,2.28,2.28h9.67v0
				c2.2,0,3.98,1.78,3.98,3.98c0,2.2-1.78,3.98-3.98,3.98v0h-1.71c-1.26,0-2.28,1.02-2.28,2.28v0c0,1.26,1.02,2.28,2.28,2.28h1.71v0
				c2.2,0,3.98,1.78,3.98,3.98c0,2.2-1.78,3.98-3.98,3.98v0H2.28c-1.26,0-2.28,1.02-2.28,2.28s1.02,2.28,2.28,2.28h9.67v0
				c4.72,0,8.54-3.82,8.54-8.54c0-2.48-1.06-4.7-2.75-6.26c1.69-1.56,2.75-3.78,2.75-6.26C20.49,81.94,16.67,78.12,11.95,78.12z"/>
		</g>
	</g>
</g>
</svg>
