<?xml version="1.0" encoding="utf-8"?>
<!-- Generator: Adobe Illustrator 23.1.1, SVG Export Plug-In . SVG Version: 6.00 Build 0)  -->
<svg version="1.1" id="Layer_1" xmlns="http://www.w3.org/2000/svg" xmlns:xlink="http://www.w3.org/1999/xlink" x="0px" y="0px"
	 viewBox="0 0 209.74 29.67" style="enable-background:new 0 0 209.74 29.67;" xml:space="preserve">
<style type="text/css">
	.st0{fill:#FFFFFF;}
</style>
<g>
	<g>
		<g>
			<path class="st0" d="M118.12,26.54l-9.1-24.97c-0.33-0.9-1.19-1.51-2.15-1.51h0c-0.96,0-1.82,0.6-2.15,1.51l-6.46,17.82
				c-0.43,1.19,0.18,2.5,1.37,2.93l0,0c1.19,0.43,2.5-0.18,2.93-1.37l4.31-11.9l6.68,18.32l0.06,0.02l-0.06-0.02l0.22,0.61
				c0.42,1.16,1.68,1.89,2.86,1.53C117.9,29.13,118.56,27.77,118.12,26.54z"/>
		</g>
		<g>
			<path class="st0" d="M97.77,25.12c-1.26,0-2.28,1.02-2.28,2.28c0,1.26,1.02,2.28,2.28,2.28c1.26,0,2.28-1.02,2.28-2.28
				C100.04,26.14,99.02,25.12,97.77,25.12z"/>
		</g>
	</g>
	<g>
		<g>
			<path class="st0" d="M127.87,0c-1.26,0-2.28,1.02-2.28,2.28c0,1.26,1.02,2.28,2.28,2.28c1.26,0,2.28-1.02,2.28-2.28
				C130.15,1.02,129.13,0,127.87,0z"/>
		</g>
		<g>
			<path class="st0" d="M146.05,1.85c-0.2-1.1-1.23-1.85-2.35-1.85h-7.86c-1.26,0-2.28,1.02-2.28,2.28v2.28v22.77
				c0,1.26,1.02,2.28,2.28,2.28h0c1.26,0,2.28-1.02,2.28-2.28V4.55h5.69C145.2,4.55,146.31,3.3,146.05,1.85z"/>
		</g>
	</g>
	<g>
		<g>
			<path class="st0" d="M175.64,0c-1.26,0-2.28,1.02-2.28,2.28v10.28h-11.38V2.28c0-1.26-1.02-2.28-2.28-2.28
				c-1.26,0-2.28,1.02-2.28,2.28v25.04c0,1.26,1.02,2.28,2.28,2.28c1.26,0,2.28-1.02,2.28-2.28V17.11h11.38v10.22
				c0,1.26,1.02,2.28,2.28,2.28s2.28-1.02,2.28-2.28V2.28C177.91,1.02,176.89,0,175.64,0z"/>
		</g>
	</g>
	<g>
		<g>
			<path class="st0" d="M65.94,17.15c1.26,0,2.28-1.02,2.28-2.28c0-1.26-1.02-2.28-2.28-2.28c-1.26,0-2.28,1.02-2.28,2.28
				C63.66,16.13,64.68,17.15,65.94,17.15z"/>
		</g>
		<g>
			<path class="st0" d="M81.87,0H65.94c-1.26,0-2.28,1.02-2.28,2.28s1.02,2.28,2.28,2.28h15.94c1.26,0,2.28-1.02,2.28-2.28
				S83.13,0,81.87,0z"/>
		</g>
		<g>
			<path class="st0" d="M81.87,12.6h-7.97c-1.26,0-2.28,1.02-2.28,2.28c0,1.26,1.02,2.28,2.28,2.28h7.97c1.26,0,2.28-1.02,2.28-2.28
				C84.15,13.62,83.13,12.6,81.87,12.6z"/>
		</g>
		<g>
			<path class="st0" d="M81.87,25.12H65.94c-1.26,0-2.28,1.02-2.28,2.28c0,1.26,1.02,2.28,2.28,2.28h15.94
				c1.26,0,2.28-1.02,2.28-2.28C84.15,26.14,83.13,25.12,81.87,25.12z"/>
		</g>
	</g>
	<g>
		<g>
			<path class="st0" d="M191.53,17.15c1.26,0,2.28-1.02,2.28-2.28c0-1.26-1.02-2.28-2.28-2.28c-1.26,0-2.28,1.02-2.28,2.28
				C189.25,16.13,190.27,17.15,191.53,17.15z"/>
		</g>
		<g>
			<path class="st0" d="M191.53,4.55h15.94c1.26,0,2.28-1.02,2.28-2.28S208.72,0,207.47,0h-15.94c-1.26,0-2.28,1.02-2.28,2.28
				S190.27,4.55,191.53,4.55z"/>
		</g>
		<g>
			<path class="st0" d="M207.47,12.6h-7.97c-1.26,0-2.28,1.02-2.28,2.28c0,1.26,1.02,2.28,2.28,2.28h7.97
				c1.26,0,2.28-1.02,2.28-2.28C209.74,13.62,208.72,12.6,207.47,12.6z"/>
		</g>
		<g>
			<path class="st0" d="M207.47,25.12h-15.94c-1.26,0-2.28,1.02-2.28,2.28c0,1.26,1.02,2.28,2.28,2.28h15.94
				c1.26,0,2.28-1.02,2.28-2.28C209.74,26.14,208.72,25.12,207.47,25.12z"/>
		</g>
	</g>
	<g>
		<path class="st0" d="M52.32,8.54C52.32,3.82,48.5,0,43.78,0l-6.42,0l-3.25,0c-1.26,0-2.28,1.02-2.28,2.28s1.02,2.28,2.28,2.28
			h3.25l6.42,0c2.2,0,3.98,1.78,3.98,3.98s-1.78,3.98-3.98,3.98l-2.39,0c-0.63,0-1.2,0.26-1.61,0.67c-0.41,0.41-0.67,0.98-0.67,1.61
			c0,0.48,0.15,0.93,0.41,1.29l0,0l8.6,12.43c0.03,0.05,0.07,0.11,0.11,0.16l0.07,0.1l0.01-0.01c0.42,0.5,1.04,0.83,1.74,0.83
			c1.26,0,2.28-1.02,2.28-2.28c0-0.54-0.2-1.04-0.52-1.43l0.01-0.01l-6.37-8.98C49.36,16.14,52.32,12.69,52.32,8.54z"/>
	</g>
	<g>
		<g>
			<path class="st0" d="M4.55,14.8c0-1.26-1.02-2.28-2.28-2.28C1.02,12.53,0,13.54,0,14.8s1.02,2.28,2.28,2.28
				C3.53,17.08,4.55,16.06,4.55,14.8z"/>
		</g>
		<g>
			<path class="st0" d="M11.95,0L11.95,0L2.28,0C1.02,0,0,1.02,0,2.28c0,1.26,1.02,2.28,2.28,2.28h9.67v0c2.2,0,3.98,1.78,3.98,3.98
				c0,2.2-1.78,3.98-3.98,3.98v0h-1.71c-1.26,0-2.28,1.02-2.28,2.28v0c0,1.26,1.02,2.28,2.28,2.28h1.71v0c2.2,0,3.98,1.78,3.98,3.98
				s-1.78,3.98-3.98,3.98v0H2.28C1.02,25.04,0,26.06,0,27.32s1.02,2.28,2.28,2.28h9.67v0c4.72,0,8.54-3.82,8.54-8.54
				c0-2.48-1.06-4.7-2.75-6.26c1.69-1.56,2.75-3.78,2.75-6.26C20.49,3.83,16.67,0,11.95,0z"/>
		</g>
	</g>
</g>
</svg>
