<?xml version="1.0" encoding="utf-8"?>
<!-- Generator: Adobe Illustrator 23.1.1, SVG Export Plug-In . SVG Version: 6.00 Build 0)  -->
<svg version="1.1" id="Layer_1" xmlns="http://www.w3.org/2000/svg" xmlns:xlink="http://www.w3.org/1999/xlink" x="0px" y="0px"
	 viewBox="0 0 91.81 58.25" style="enable-background:new 0 0 91.81 58.25;" xml:space="preserve">
<style type="text/css">
	.st0{fill:#FFFFFF;}
</style>
<g>
	<path class="st0" d="M53.73,41.37L53.73,41.37L53.73,41.37L53.73,41.37L53.73,41.37c5.85,5.85,15.35,5.85,21.2,0
		c5.85-5.85,5.85-15.35,0-21.2c-5.85-5.85-15.35-5.85-21.2,0l0,0c-0.01,0.01-0.02,0.01-0.02,0.02c-0.98,0.98-0.98,2.56,0,3.53
		c0.98,0.98,2.56,0.98,3.53,0c0.01-0.01,0.01-0.02,0.02-0.02l0,0c3.9-3.9,10.23-3.9,14.13,0c3.9,3.9,3.9,10.23,0,14.13
		c-3.9,3.9-10.23,3.9-14.13,0L27.23,7.8c-0.98-0.98-2.56-0.98-3.53,0c-0.98,0.98-0.98,2.56,0,3.53L53.73,41.37z"/>
	<path class="st0" d="M3.89,2.19c-0.83-0.56-1.95-0.56-2.78,0c-1.48,1.01-1.48,3.15,0,4.16c0.83,0.56,1.95,0.56,2.78,0
		C5.37,5.34,5.37,3.2,3.89,2.19z"/>
	<path class="st0" d="M17.01,4.58c0.83,0.56,1.95,0.56,2.78,0c1.48-1.01,1.48-3.15,0-4.16c-0.83-0.56-1.95-0.56-2.78,0
		C15.53,1.43,15.53,3.57,17.01,4.58z"/>
	<path class="st0" d="M88.8,38.25c-1.5-0.98-3.48-0.16-3.84,1.59c-0.2,0.98,0.23,2.02,1.06,2.56c1.5,0.98,3.48,0.16,3.84-1.59
		C90.07,39.84,89.64,38.8,88.8,38.25z"/>
	<path class="st0" d="M80.14,46.76c-8.79,8.69-22.96,8.66-31.7-0.09L11.41,9.65c-0.97-0.97-2.57-1.07-3.57-0.13
		c-1.02,0.97-1.04,2.59-0.05,3.58l37.1,37.1l0,0c10.73,10.73,28.13,10.73,38.87,0c1-1,0.98-2.62-0.06-3.59
		C82.7,45.67,81.11,45.8,80.14,46.76z"/>
	<path class="st0" d="M83.76,11.34C73.03,0.6,55.63,0.6,44.9,11.34l0,0c-0.01,0.01-0.02,0.01-0.02,0.02c-0.98,0.98-0.98,2.56,0,3.53
		c0.98,0.98,2.56,0.98,3.53,0c0.01-0.01,0.01-0.02,0.02-0.02l0,0c8.78-8.78,23.02-8.78,31.8,0c4.39,4.39,6.59,10.15,6.59,15.9
		c0,1.38,1.12,2.5,2.5,2.5s2.5-1.12,2.5-2.5v0C91.81,23.73,89.13,16.7,83.76,11.34z"/>
</g>
</svg>
